<?xml version="1.0" encoding="utf-8"?>
<!-- Generator: Adobe Illustrator 27.5.0, SVG Export Plug-In . SVG Version: 6.00 Build 0)  -->
<svg version="1.1" xmlns="http://www.w3.org/2000/svg" xmlns:xlink="http://www.w3.org/1999/xlink" x="0px" y="0px"
	 viewBox="0 0 500 500" style="enable-background:new 0 0 500 500;" xml:space="preserve">
<g id="Floor">
	<path style="fill:#F5F5F5;" d="M409.038,255.092c-88.41-51.043-231.282-51.043-319.117,0.001
		C2.081,306.141,2.546,388.898,90.956,439.942c88.415,51.047,231.288,51.046,319.128-0.002
		C497.919,388.896,497.454,306.139,409.038,255.092z"/>
</g>
<g id="Shadows_1_">
	<path style="fill:#E0E0E0;" d="M46.473,332.872c6.54-3.776,17.107-3.776,23.604,0c6.497,3.776,6.463,9.897-0.077,13.673
		c-6.54,3.776-17.108,3.776-23.605,0C39.898,342.77,39.933,336.648,46.473,332.872z"/>
	<path style="fill:#E0E0E0;" d="M429.758,305.908c6.858-3.959,17.94-3.959,24.754,0c6.814,3.96,6.778,10.379-0.08,14.339
		c-6.858,3.96-17.941,3.96-24.755,0C422.864,316.287,422.9,309.868,429.758,305.908z"/>
	<path style="fill:#E0E0E0;" d="M59.66,365.64c-1.175,0.678-1.181,1.777-0.014,2.455l9.508,5.526c1.167,0.678,3.064,0.678,4.238,0
		l197.28-113.899c1.175-0.678,1.181-1.777,0.014-2.455l-9.508-5.526c-1.167-0.678-3.064-0.678-4.238,0L59.66,365.64z"/>
	<path style="fill:#E0E0E0;" d="M442.091,352.448c0.397,0.229,0.4,0.601,0.005,0.831l-3.217,1.87c-0.395,0.23-1.037,0.23-1.434,0
		l-72.07-41.413c-0.397-0.229-0.4-0.601-0.005-0.831l3.217-1.87c0.395-0.23,1.037-0.23,1.434,0L442.091,352.448z"/>
	<path style="fill:#E0E0E0;" d="M147.067,408.596c18.836-10.875,49.276-10.875,67.99,0c18.715,10.876,18.616,28.508-0.22,39.383
		c-18.838,10.876-49.277,10.876-67.992,0C128.13,437.104,128.23,419.472,147.067,408.596z"/>
	<path style="fill:#E0E0E0;" d="M353.035,322.18c-16.477-9.513-43.104-9.513-59.474,0c-16.371,9.514-16.284,24.937,0.193,34.45
		c16.478,9.514,43.105,9.514,59.476,0C369.6,347.117,369.513,331.694,353.035,322.18z"/>
	<path style="fill:#E0E0E0;" d="M189.655,383.862l14,8.083c1.547,0.893,3.453,0.893,5,0l71.265-41.145
		c0.67-0.387,0.666-1.356-0.008-1.737l-14.187-8.013c-1.541-0.87-3.426-0.861-4.959,0.023l-71.111,41.056
		C188.988,382.514,188.988,383.477,189.655,383.862z"/>
</g>
<g id="Window">
	<g>
		<g>
			<g>
				<g>
					<g style="enable-background:new    ;">
						<g>
							<polygon style="fill:#F0F0F0;" points="306.55,46.453 310.28,44.285 310.062,155.93 306.331,158.098 							"/>
						</g>
						<g>
							<polygon style="fill:#F5F5F5;" points="306.331,158.098 310.062,155.93 353.01,180.583 349.279,182.752 							"/>
						</g>
						<g>
							<path style="fill:#E0E0E0;" d="M302.271,39.042l51.533,29.61l-0.247,121.51l-51.533-29.609L302.271,39.042z M349.279,182.752
								l0.219-111.646L306.55,46.453l-0.219,111.646L349.279,182.752"/>
						</g>
						<g>
							<polygon style="fill:#F5F5F5;" points="302.271,39.042 306.002,36.875 357.535,66.484 353.804,68.652 							"/>
						</g>
						<g>
							<polygon style="fill:#F0F0F0;" points="353.804,68.652 357.535,66.484 357.288,187.993 353.557,190.162 							"/>
						</g>
					</g>
				</g>
			</g>
			<g>
				<polygon style="fill:#F5F5F5;" points="306.339,87.893 310.07,85.724 349.498,108.403 349.498,112.717 				"/>
				<polygon style="fill:#E0E0E0;" points="306.339,87.893 306.339,87.893 306.339,87.893 349.498,112.717 349.498,117.644
					306.331,92.842 				"/>

					<rect x="327.918" y="75.41" transform="matrix(0.4986 -0.8668 0.8668 0.4986 77.4735 334.5458)" style="fill:#E0E0E0;" width="0" height="49.789"/>
			</g>
		</g>
		<g>
			<g>
				<g>
					<g style="enable-background:new    ;">
						<g>
							<polygon style="fill:#F0F0F0;" points="372.248,84.249 375.979,82.081 375.76,193.727 372.03,195.895 							"/>
						</g>
						<g>
							<polygon style="fill:#F5F5F5;" points="372.03,195.895 375.76,193.727 418.709,218.38 414.978,220.548 							"/>
						</g>
						<g>
							<path style="fill:#E0E0E0;" d="M367.97,76.839l51.533,29.609l-0.247,121.51l-51.533-29.609L367.97,76.839z M414.978,220.548
								l0.219-111.646l-42.948-24.653l-0.219,111.646L414.978,220.548"/>
						</g>
						<g>
							<polygon style="fill:#F5F5F5;" points="367.97,76.839 371.701,74.671 423.234,104.281 419.503,106.449 							"/>
						</g>
						<g>
							<polygon style="fill:#F0F0F0;" points="419.503,106.449 423.234,104.281 422.987,225.79 419.256,227.958 							"/>
						</g>
					</g>
				</g>
			</g>
			<g>
				<polygon style="fill:#F5F5F5;" points="372.038,125.689 375.768,123.521 415.197,146.2 415.197,150.514 				"/>
				<polygon style="fill:#E0E0E0;" points="372.038,125.689 372.038,125.689 372.038,125.689 415.197,150.514 415.197,155.441
					372.03,130.639 				"/>

					<rect x="393.617" y="113.207" transform="matrix(0.4986 -0.8668 0.8668 0.4986 77.6518 410.4476)" style="fill:#E0E0E0;" width="0" height="49.789"/>
			</g>
		</g>
	</g>
</g>
<g id="Plants">
	<g>
		<g>
			<path style="fill:#FFFFFF;" d="M42.403,311.147l15.833,0.461l15.833-0.461c0.682,10.692-1.406,21.589-4.284,26.912l-0.011-0.002
				c-0.515,1.168-1.551,2.276-3.134,3.189c-4.672,2.697-12.222,2.697-16.863,0c-1.609-0.935-2.644-2.074-3.132-3.272
				C43.789,332.624,41.725,321.787,42.403,311.147z"/>
			<g>
				<path style="fill:#EBEBEB;" d="M47.078,304.662c-6.204,3.581-6.236,9.388-0.074,12.97c6.163,3.582,16.188,3.582,22.392,0
					c6.203-3.582,6.236-9.388,0.073-12.97C63.305,301.081,53.281,301.081,47.078,304.662z"/>
			</g>
			<g>
				<path style="fill:#E0E0E0;" d="M49.531,306.088c-4.84,2.794-4.866,7.325-0.057,10.119c4.808,2.794,12.629,2.794,17.469,0
					c4.84-2.794,4.865-7.324,0.057-10.119C62.191,303.294,54.37,303.294,49.531,306.088z"/>
			</g>
			<g style="opacity:0.15;">
				<path d="M49.531,306.088c-4.84,2.794-4.866,7.325-0.057,10.119c4.808,2.794,12.629,2.794,17.469,0
					c4.84-2.794,4.865-7.324,0.057-10.119C62.191,303.294,54.37,303.294,49.531,306.088z"/>
			</g>
		</g>
		<g>
			<path style="fill:#D63939;" d="M32.205,243.584c35.681,11.683,36.004,35.553,27.96,52.552
				c-2.028,3.441-8.168,5.289-13.512-15.852l9.372,1.202l-10.922-5.536l-2.837-8.48l9.106,0.676l-11.559-4.862
				C35.555,250.403,32.205,243.584,32.205,243.584z"/>
			<path style="opacity:0.2;" d="M32.205,243.584c35.681,11.683,36.004,35.553,27.96,52.552c-2.028,3.441-8.168,5.289-13.512-15.852
				l9.372,1.202l-10.922-5.536l-2.837-8.48l9.106,0.676l-11.559-4.862C35.555,250.403,32.205,243.584,32.205,243.584z"/>
			<path style="opacity:0.2;fill:#FFFFFF;" d="M32.205,243.584c35.681,11.683,36.004,35.553,27.96,52.552
				c-2.028,3.441-8.168,5.289-13.512-15.852l9.372,1.202l-10.922-5.536l-2.837-8.48l9.106,0.676l-11.559-4.862
				C35.555,250.403,32.205,243.584,32.205,243.584z"/>
			<path style="fill:#FFFFFF;" d="M42.296,249.554c18.816,14.281,20.515,30.654,15.199,47.746
				C59.376,282.249,61.408,267.031,42.296,249.554z"/>
		</g>
		<g>
			<path style="fill:#D63939;" d="M92.639,267.832c-35.171,4.952-39.438,27.129-34.771,44.297
				c1.318,3.542,6.728,6.283,15.217-12.518l-8.928-0.438l11.091-3.341l4.051-7.426l-8.593-0.883l11.573-2.607
				C88.385,273.626,92.639,267.832,92.639,267.832z"/>
			<path style="opacity:0.2;fill:#FFFFFF;" d="M92.639,267.832c-35.171,4.952-39.438,27.129-34.771,44.297
				c1.318,3.542,6.728,6.283,15.217-12.518l-8.928-0.438l11.091-3.341l4.051-7.426l-8.593-0.883l11.573-2.607
				C88.385,273.626,92.639,267.832,92.639,267.832z"/>
			<path style="opacity:0.1;" d="M92.639,267.832c-35.171,4.952-39.438,27.129-34.771,44.297c1.318,3.542,6.728,6.283,15.217-12.518
				l-8.928-0.438l11.091-3.341l4.051-7.426l-8.593-0.883l11.573-2.607C88.385,273.626,92.639,267.832,92.639,267.832z"/>
			<path style="fill:#FFFFFF;" d="M82.248,271.715c-19.896,10.174-24.199,25.14-22.088,41.942
				C60.909,299.327,61.545,284.816,82.248,271.715z"/>
		</g>
		<g>
			<path style="fill:#D63939;" d="M21.91,276.143c32.254,0.527,38.582,20.038,36.297,36.033c-0.791,3.34-5.361,6.416-15.116-9.58
				l7.998-1.394l-10.37-1.77l-4.482-6.24l7.646-1.758L33.16,290.38C26.393,280.889,21.91,276.143,21.91,276.143z"/>
			<path style="fill:#FFFFFF;" d="M31.71,278.479c19.071,6.943,24.624,19.95,24.602,35.33
				C54.033,300.978,51.836,287.971,31.71,278.479z"/>
			<path style="opacity:0.2;fill:#FFFFFF;" d="M21.91,276.143c32.254,0.527,38.582,20.038,36.297,36.033
				c-0.791,3.34-5.361,6.416-15.116-9.58l7.998-1.394l-10.37-1.77l-4.482-6.24l7.646-1.758L33.16,290.38
				C26.393,280.889,21.91,276.143,21.91,276.143z"/>
		</g>
	</g>
	<g>
		<g>
			<path style="fill:#FFFFFF;" d="M425.49,283.125l16.604,0.484l16.604-0.484c0.715,11.213-1.474,22.64-4.492,28.222l-0.012-0.002
				c-0.54,1.225-1.627,2.387-3.287,3.345c-4.899,2.829-12.817,2.829-17.684,0c-1.688-0.981-2.773-2.174-3.285-3.431
				C426.944,305.647,424.779,294.283,425.49,283.125z"/>
			<g>
				<path style="fill:#EBEBEB;" d="M430.392,276.324c-6.506,3.756-6.54,9.845-0.077,13.601c6.463,3.756,16.976,3.756,23.482,0
					c6.505-3.756,6.539-9.845,0.076-13.602C447.41,272.569,436.898,272.569,430.392,276.324z"/>
			</g>
			<g>
				<path style="fill:#E0E0E0;" d="M432.965,277.819c-5.076,2.931-5.102,7.681-0.06,10.612c5.043,2.93,13.244,2.93,18.32,0
					c5.075-2.93,5.102-7.681,0.059-10.612C446.242,274.889,438.04,274.889,432.965,277.819z"/>
			</g>
			<g style="opacity:0.15;">
				<path d="M432.965,277.819c-5.076,2.931-5.102,7.681-0.06,10.612c5.043,2.93,13.244,2.93,18.32,0
					c5.075-2.93,5.102-7.681,0.059-10.612C446.242,274.889,438.04,274.889,432.965,277.819z"/>
			</g>
		</g>
		<g>
			<path style="fill:#D63939;" d="M450.564,249.146c2.7-3.357,5.837-6.365,8.313-9.891c1.689-2.406,3.102-5.35,2.392-8.202
				c-0.659-2.646-3.132-4.615-5.813-5.117c-2.681-0.502-5.488,0.3-7.803,1.741c-2.316,1.441-4.198,3.48-5.897,5.613
				c-9.29,11.659-13.816,27.006-12.339,41.841c0.169,1.701,0.454,3.489,1.541,4.808c1.165,1.415,3.206,2.038,4.963,1.517
				c4.523-1.342,3.923-7.453,4.663-11.047c1.013-4.926,2.773-9.699,5.195-14.106C447.162,253.784,448.762,251.385,450.564,249.146z"
				/>
			<path style="opacity:0.2;fill:#FFFFFF;" d="M450.564,249.146c2.7-3.357,5.837-6.365,8.313-9.891
				c1.689-2.406,3.102-5.35,2.392-8.202c-0.659-2.646-3.132-4.615-5.813-5.117c-2.681-0.502-5.488,0.3-7.803,1.741
				c-2.316,1.441-4.198,3.48-5.897,5.613c-9.29,11.659-13.816,27.006-12.339,41.841c0.169,1.701,0.454,3.489,1.541,4.808
				c1.165,1.415,3.206,2.038,4.963,1.517c4.523-1.342,3.923-7.453,4.663-11.047c1.013-4.926,2.773-9.699,5.195-14.106
				C447.162,253.784,448.762,251.385,450.564,249.146z"/>
			<g>
				<path style="fill:#F0F0F0;" d="M435.638,276.902c0.175-0.034,0.311-0.185,0.319-0.371c0.317-7.261,2.677-32.044,19.757-46.106
					c0.169-0.139,0.193-0.389,0.054-0.557c-0.139-0.169-0.388-0.192-0.557-0.054c-17.332,14.27-19.724,39.339-20.045,46.682
					c-0.009,0.218,0.16,0.403,0.378,0.413C435.577,276.91,435.608,276.908,435.638,276.902z"/>
			</g>
			<g>
				<path style="fill:#D63939;" d="M433.142,277.688c0.517,2.85,2.965,6.377,5.546,7.691c2.559,1.302,5.529,1.651,8.392,1.405
					c2.915-0.251,5.746-1.087,8.519-2.02c1.369-0.461,2.892-1.083,3.037-2.779c0.077-0.895-0.325-1.762-0.969-2.389
					c-0.27-0.263-0.567-0.519-0.884-0.761c-0.645-0.492-0.342-1.517,0.467-1.572c0.815-0.056,1.625-0.147,2.428-0.3
					c1.854-0.354,3.679-1.061,5.097-2.306c1.065-0.935,1.872-2.154,2.354-3.487c0.412-1.141,0.528-2.572-0.336-3.423
					c-0.496-0.488-1.208-0.674-1.888-0.821c-0.607-0.131-1.216-0.243-1.826-0.338c-0.811-0.126-0.946-1.233-0.188-1.549l2.576-1.073
					c0.715-0.298,1.46-0.617,1.955-1.214c0.789-0.951,0.732-2.336,0.496-3.548c-0.315-1.613-0.872-3.168-1.251-4.766
					c-0.38-1.598-0.579-3.286-0.17-4.877c-4.81-0.487-9.752-0.258-14.429,0.963c-1.397,0.365-2.81,0.822-3.938,1.724
					c-1.606,1.285-2.024,3.214-1.854,5.304c0.032,0.396-0.512,0.546-0.702,0.197l-1.646-3.035c-0.496-0.914-1.618-1.259-2.559-0.818
					c-1.42,0.667-2.688,1.734-3.764,2.96c-1.16,1.322-1.752,3.064-1.61,4.818c0.192,2.371,0.606,4.772,1.2,7.073
					c0.156,0.603-0.52,1.056-1.024,0.692l-0.079-0.057c-0.449-0.325-1.001-0.52-1.552-0.451c-1.455,0.18-1.827,1.655-1.923,2.91
					C432.478,273.655,432.799,275.797,433.142,277.688z"/>
				<path style="opacity:0.2;" d="M433.142,277.688c0.517,2.85,2.965,6.377,5.546,7.691c2.559,1.302,5.529,1.651,8.392,1.405
					c2.915-0.251,5.746-1.087,8.519-2.02c1.369-0.461,2.892-1.083,3.037-2.779c0.077-0.895-0.325-1.762-0.969-2.389
					c-0.27-0.263-0.567-0.519-0.884-0.761c-0.645-0.492-0.342-1.517,0.467-1.572c0.815-0.056,1.625-0.147,2.428-0.3
					c1.854-0.354,3.679-1.061,5.097-2.306c1.065-0.935,1.872-2.154,2.354-3.487c0.412-1.141,0.528-2.572-0.336-3.423
					c-0.496-0.488-1.208-0.674-1.888-0.821c-0.607-0.131-1.216-0.243-1.826-0.338c-0.811-0.126-0.946-1.233-0.188-1.549l2.576-1.073
					c0.715-0.298,1.46-0.617,1.955-1.214c0.789-0.951,0.732-2.336,0.496-3.548c-0.315-1.613-0.872-3.168-1.251-4.766
					c-0.38-1.598-0.579-3.286-0.17-4.877c-4.81-0.487-9.752-0.258-14.429,0.963c-1.397,0.365-2.81,0.822-3.938,1.724
					c-1.606,1.285-2.024,3.214-1.854,5.304c0.032,0.396-0.512,0.546-0.702,0.197l-1.646-3.035c-0.496-0.914-1.618-1.259-2.559-0.818
					c-1.42,0.667-2.688,1.734-3.764,2.96c-1.16,1.322-1.752,3.064-1.61,4.818c0.192,2.371,0.606,4.772,1.2,7.073
					c0.156,0.603-0.52,1.056-1.024,0.692l-0.079-0.057c-0.449-0.325-1.001-0.52-1.552-0.451c-1.455,0.18-1.827,1.655-1.923,2.91
					C432.478,273.655,432.799,275.797,433.142,277.688z"/>
				<path style="opacity:0.2;fill:#FFFFFF;" d="M433.142,277.688c0.517,2.85,2.965,6.377,5.546,7.691
					c2.559,1.302,5.529,1.651,8.392,1.405c2.915-0.251,5.746-1.087,8.519-2.02c1.369-0.461,2.892-1.083,3.037-2.779
					c0.077-0.895-0.325-1.762-0.969-2.389c-0.27-0.263-0.567-0.519-0.884-0.761c-0.645-0.492-0.342-1.517,0.467-1.572
					c0.815-0.056,1.625-0.147,2.428-0.3c1.854-0.354,3.679-1.061,5.097-2.306c1.065-0.935,1.872-2.154,2.354-3.487
					c0.412-1.141,0.528-2.572-0.336-3.423c-0.496-0.488-1.208-0.674-1.888-0.821c-0.607-0.131-1.216-0.243-1.826-0.338
					c-0.811-0.126-0.946-1.233-0.188-1.549l2.576-1.073c0.715-0.298,1.46-0.617,1.955-1.214c0.789-0.951,0.732-2.336,0.496-3.548
					c-0.315-1.613-0.872-3.168-1.251-4.766c-0.38-1.598-0.579-3.286-0.17-4.877c-4.81-0.487-9.752-0.258-14.429,0.963
					c-1.397,0.365-2.81,0.822-3.938,1.724c-1.606,1.285-2.024,3.214-1.854,5.304c0.032,0.396-0.512,0.546-0.702,0.197l-1.646-3.035
					c-0.496-0.914-1.618-1.259-2.559-0.818c-1.42,0.667-2.688,1.734-3.764,2.96c-1.16,1.322-1.752,3.064-1.61,4.818
					c0.192,2.371,0.606,4.772,1.2,7.073c0.156,0.603-0.52,1.056-1.024,0.692l-0.079-0.057c-0.449-0.325-1.001-0.52-1.552-0.451
					c-1.455,0.18-1.827,1.655-1.923,2.91C432.478,273.655,432.799,275.797,433.142,277.688z"/>
				<path style="fill:#F0F0F0;" d="M440.794,284.983c0.02-0.101,1.016-4.93,3.881-11.247c0-0.113,0.048-0.219,0.136-0.296
					c0.09-0.196,0.178-0.39,0.272-0.588c-0.823-7.555-3.814-12.825-3.844-12.877c-0.109-0.19-0.044-0.431,0.145-0.541
					c0.19-0.107,0.431-0.044,0.54,0.146c0.029,0.051,2.782,4.899,3.79,11.97c3.285-6.588,8.526-14.293,16.615-19.923
					c0.18-0.124,0.426-0.081,0.551,0.099c0.125,0.179,0.08,0.426-0.099,0.551c-8.344,5.807-13.611,13.857-16.81,20.538
					c6.52-3.174,13.446-1.919,13.754-1.861c0.214,0.04,0.355,0.247,0.315,0.463c-0.031,0.163-0.158,0.284-0.312,0.314
					c-0.048,0.009-0.099,0.01-0.15,0c-0.076-0.014-7.627-1.387-14.157,2.263c-2.843,6.254-3.831,11.042-3.851,11.142
					c-0.032,0.162-0.159,0.282-0.312,0.312c-0.049,0.01-0.101,0.01-0.153,0C440.891,285.405,440.752,285.196,440.794,284.983z"/>
			</g>
		</g>
	</g>
</g>
<g id="Board">
	<g>
		<g>
			<g>
				<g>
					<path style="fill:#E0E0E0;" d="M260.461,260.19c-3.1,1.802-8.142,1.802-11.263,0c-1.56-0.901-2.344-2.081-2.351-3.262h0v4.613
						c0.007,1.181,0.791,2.361,2.351,3.262c3.12,1.801,8.163,1.801,11.263,0c1.55-0.901,2.321-2.082,2.314-3.262v-4.613
						C262.782,258.109,262.012,259.289,260.461,260.19z"/>
					<path style="fill:#F0F0F0;" d="M249.199,260.19c3.12,1.801,8.163,1.801,11.263,0c1.55-0.901,2.321-2.081,2.314-3.262
						s-0.791-2.361-2.351-3.262c-3.121-1.802-8.163-1.802-11.263,0c-1.55,0.901-2.321,2.081-2.314,3.262
						S247.638,259.289,249.199,260.19z"/>
				</g>
				<path style="fill:#E0E0E0;" d="M252.558,45.427v211.012l0,0c0.002,0.334,0.224,0.668,0.665,0.923c0.883,0.51,2.31,0.51,3.188,0
					c0.439-0.255,0.657-0.589,0.655-0.923V45.427H252.558z"/>
			</g>
			<g>
				<g>
					<path style="fill:#E0E0E0;" d="M253.761,43.48c0.944,0.545,1.707,1.866,1.704,2.951c-0.003,1.085-0.771,1.523-1.715,0.977
						c-0.944-0.545-1.707-1.866-1.704-2.951C252.049,43.372,252.817,42.934,253.761,43.48z"/>
				</g>
				<path style="fill:#E6E6E6;" d="M272.429,36.486c-0.001-0.027-0.002-0.055-0.004-0.083c-0.001-0.013-0.002-0.025-0.003-0.038
					c0-0.006-0.001-0.011-0.001-0.016c-0.001-0.01-0.001-0.019-0.002-0.029c-0.003-0.028-0.006-0.056-0.009-0.084
					c-0.004-0.028-0.008-0.057-0.012-0.086c0-0.001,0-0.002-0.001-0.003c0-0.001,0-0.002,0-0.003
					c-0.004-0.027-0.009-0.054-0.014-0.081c-0.005-0.03-0.012-0.059-0.018-0.089c-0.002-0.01-0.005-0.021-0.007-0.031
					c-0.001-0.006-0.003-0.013-0.004-0.019c-0.003-0.013-0.006-0.026-0.009-0.039c-0.007-0.03-0.015-0.06-0.024-0.091
					c-0.006-0.022-0.013-0.044-0.019-0.066c-0.001-0.004-0.002-0.008-0.004-0.012c-0.001-0.004-0.002-0.008-0.003-0.012
					c-0.009-0.029-0.019-0.059-0.028-0.088c-0.01-0.029-0.02-0.058-0.03-0.087c-0.002-0.005-0.004-0.01-0.006-0.016
					c-0.002-0.004-0.003-0.009-0.005-0.013c-0.007-0.018-0.013-0.036-0.021-0.055c-0.011-0.028-0.022-0.055-0.033-0.083
					c-0.008-0.02-0.017-0.04-0.026-0.059c-0.001-0.003-0.003-0.007-0.004-0.01c-0.002-0.004-0.003-0.008-0.005-0.012
					c-0.012-0.028-0.025-0.055-0.038-0.083c-0.014-0.03-0.029-0.06-0.044-0.09c-0.002-0.005-0.005-0.009-0.007-0.014
					c-0.003-0.006-0.006-0.012-0.009-0.018c-0.012-0.024-0.024-0.048-0.037-0.071c-0.016-0.03-0.033-0.059-0.049-0.088
					c-0.008-0.015-0.016-0.03-0.025-0.045c-0.004-0.006-0.007-0.012-0.01-0.018c-0.015-0.025-0.031-0.05-0.047-0.075
					c-0.023-0.037-0.045-0.074-0.069-0.11c-0.004-0.006-0.007-0.012-0.011-0.017c-0.035-0.052-0.071-0.103-0.108-0.153
					c0,0,0,0,0-0.001c0,0,0,0,0,0c-0.025-0.034-0.05-0.067-0.076-0.1c-0.021-0.026-0.042-0.052-0.063-0.078
					c-0.001-0.001-0.001-0.001-0.002-0.002c0,0,0-0.001-0.001-0.001c-0.022-0.026-0.044-0.052-0.066-0.077
					c-0.022-0.025-0.044-0.049-0.066-0.074c-0.004-0.004-0.007-0.008-0.011-0.012c-0.004-0.004-0.008-0.008-0.012-0.012
					c-0.016-0.017-0.031-0.033-0.047-0.049c-0.024-0.024-0.048-0.048-0.072-0.071c-0.007-0.007-0.015-0.014-0.023-0.021
					c-0.006-0.005-0.011-0.011-0.017-0.016c-0.012-0.011-0.023-0.022-0.035-0.033c-0.025-0.023-0.05-0.045-0.076-0.066
					c-0.011-0.009-0.023-0.018-0.034-0.028c-0.006-0.005-0.011-0.009-0.017-0.014c-0.009-0.007-0.017-0.014-0.025-0.021
					c-0.025-0.02-0.05-0.039-0.075-0.057c-0.018-0.014-0.037-0.026-0.055-0.039c-0.003-0.002-0.007-0.005-0.01-0.007
					c-0.003-0.002-0.006-0.004-0.009-0.007c-0.024-0.016-0.048-0.033-0.073-0.048c-0.024-0.015-0.048-0.03-0.072-0.044
					c-0.006-0.003-0.011-0.007-0.017-0.01c-0.018-0.01-0.036-0.021-0.054-0.03c-0.023-0.013-0.047-0.025-0.07-0.036
					c-0.015-0.007-0.03-0.014-0.045-0.021c-0.004-0.002-0.007-0.004-0.011-0.005c-0.005-0.002-0.009-0.004-0.013-0.006
					c-0.023-0.01-0.046-0.02-0.068-0.029c-0.023-0.009-0.046-0.018-0.069-0.026c-0.004-0.001-0.008-0.002-0.012-0.004
					c-0.003-0.001-0.007-0.002-0.01-0.003c-0.015-0.005-0.031-0.011-0.046-0.015c-0.024-0.007-0.047-0.014-0.071-0.019
					c-0.011-0.003-0.022-0.005-0.034-0.007c-0.005-0.001-0.01-0.002-0.015-0.003c-0.007-0.002-0.015-0.003-0.022-0.005
					c-0.025-0.005-0.05-0.009-0.075-0.012c-0.015-0.002-0.03-0.003-0.045-0.005c-0.005,0-0.01-0.001-0.016-0.002
					c-0.005,0-0.01-0.001-0.015-0.002c-0.027-0.002-0.054-0.003-0.08-0.003c-0.012,0-0.023,0.001-0.034,0.002
					c-0.009,0-0.018,0.001-0.027,0.001c-0.009,0.001-0.018,0-0.028,0.001c-0.034,0.003-0.066,0.008-0.099,0.014
					c-0.001,0-0.001,0-0.002,0c-0.007,0.001-0.013,0.004-0.02,0.006c-0.033,0.007-0.066,0.016-0.097,0.027
					c-0.003,0.001-0.005,0.002-0.007,0.003c-0.046,0.017-0.089,0.036-0.131,0.061l-16.965,9.868
					c0.042-0.024,0.086-0.044,0.131-0.061c0.034-0.012,0.069-0.022,0.105-0.03c0.007-0.001,0.013-0.004,0.02-0.006
					c0.041-0.008,0.084-0.013,0.128-0.016c0.009,0,0.018-0.001,0.027-0.001c0.042-0.002,0.085-0.001,0.13,0.002
					c0.005,0,0.01,0.001,0.016,0.002c0.046,0.004,0.094,0.012,0.142,0.022c0.005,0.001,0.01,0.002,0.015,0.003
					c0.049,0.011,0.099,0.025,0.15,0.042c0.003,0.001,0.007,0.002,0.01,0.003c0.053,0.018,0.107,0.04,0.162,0.065
					c0.004,0.002,0.007,0.004,0.011,0.005c0.056,0.026,0.112,0.055,0.169,0.088c0.058,0.033,0.115,0.07,0.171,0.109
					c0.003,0.002,0.007,0.005,0.01,0.007c0.052,0.037,0.104,0.076,0.155,0.117c0.006,0.005,0.011,0.009,0.017,0.014
					c0.049,0.04,0.098,0.083,0.145,0.127c0.006,0.005,0.011,0.011,0.017,0.016c0.048,0.045,0.096,0.093,0.142,0.142
					c0.004,0.004,0.008,0.008,0.012,0.012c0.049,0.053,0.098,0.107,0.145,0.164c0.001,0.001,0.001,0.001,0.002,0.002
					c0.048,0.058,0.094,0.117,0.139,0.178c0,0,0,0,0.001,0.001c0.041,0.056,0.08,0.113,0.119,0.171
					c0.024,0.036,0.046,0.073,0.069,0.11c0.019,0.031,0.039,0.061,0.057,0.093c0.008,0.015,0.017,0.03,0.025,0.044
					c0.03,0.053,0.059,0.106,0.086,0.159c0.003,0.006,0.006,0.012,0.009,0.018c0.033,0.065,0.064,0.132,0.093,0.198
					c0.001,0.003,0.003,0.007,0.004,0.01c0.029,0.065,0.055,0.131,0.079,0.197c0.002,0.004,0.003,0.009,0.005,0.013
					c0.025,0.068,0.048,0.136,0.068,0.203c0.001,0.004,0.002,0.008,0.004,0.012c0.02,0.065,0.037,0.131,0.052,0.196
					c0.001,0.006,0.003,0.013,0.004,0.019c0.015,0.068,0.029,0.135,0.04,0.202c0,0.001,0,0.002,0,0.003
					c0.011,0.068,0.019,0.135,0.024,0.201c0.001,0.006,0.001,0.011,0.001,0.016c0.005,0.067,0.008,0.132,0.008,0.198
					c0,0.065-0.003,0.127-0.009,0.188c-0.001,0.006-0.001,0.011-0.002,0.016c-0.006,0.055-0.013,0.108-0.023,0.159
					c-0.001,0.007-0.003,0.014-0.004,0.02c-0.01,0.049-0.023,0.097-0.037,0.142c-0.003,0.008-0.005,0.017-0.008,0.025
					c-0.014,0.043-0.03,0.083-0.048,0.122c-0.002,0.004-0.004,0.009-0.006,0.013c-0.021,0.044-0.044,0.086-0.069,0.125
					c-0.003,0.005-0.007,0.009-0.01,0.014c-0.021,0.031-0.043,0.06-0.066,0.088c-0.008,0.01-0.017,0.019-0.026,0.029
					c-0.02,0.022-0.042,0.043-0.064,0.062c-0.009,0.008-0.018,0.016-0.028,0.024c-0.032,0.025-0.064,0.049-0.099,0.069l0,0l0,0
					l16.965-9.868c0.035-0.02,0.067-0.044,0.099-0.069c0.009-0.007,0.018-0.016,0.028-0.024c0.022-0.019,0.044-0.04,0.064-0.062
					c0.009-0.01,0.018-0.019,0.026-0.029c0.023-0.027,0.046-0.057,0.066-0.088c0.003-0.005,0.007-0.009,0.01-0.015
					c0.001-0.001,0.002-0.002,0.002-0.003c0.023-0.037,0.045-0.076,0.064-0.117c0.001-0.001,0.001-0.003,0.002-0.004
					c0.002-0.004,0.004-0.009,0.006-0.013c0.012-0.026,0.023-0.052,0.034-0.08c0.005-0.014,0.009-0.028,0.014-0.042
					c0.003-0.008,0.006-0.017,0.008-0.025c0.002-0.008,0.005-0.015,0.007-0.022c0.008-0.028,0.016-0.057,0.023-0.087
					c0.002-0.01,0.004-0.022,0.007-0.032c0.001-0.007,0.003-0.014,0.004-0.02c0.002-0.01,0.004-0.02,0.006-0.031
					c0.005-0.027,0.009-0.054,0.012-0.082c0.002-0.015,0.003-0.031,0.005-0.047c0-0.005,0.001-0.011,0.002-0.016
					c0.001-0.007,0.001-0.013,0.002-0.019c0.002-0.026,0.004-0.053,0.005-0.081c0.001-0.027,0.002-0.055,0.002-0.083
					c0-0.002,0-0.003,0-0.005C272.43,36.537,272.429,36.512,272.429,36.486z"/>
			</g>
			<g>
				<g>
					<polygon style="fill:#D63939;" points="72.999,145.755 72.999,316.308 252.725,212.726 252.725,41.625 					"/>
					<polygon style="opacity:0.4;fill:#FFFFFF;" points="72.999,145.755 72.999,316.308 252.725,212.726 252.725,41.625 					"/>
					<g>
						<g>
							<path style="fill:#D63939;" d="M76.616,143.694c1.991,1.15,3.6,3.936,3.594,6.225c-0.007,2.288-1.626,3.211-3.617,2.062
								c-1.992-1.15-3.6-3.936-3.594-6.225C73.005,143.467,74.625,142.544,76.616,143.694z"/>
						</g>
						<path style="fill:#D63939;" d="M260.665,45.441c-0.002-0.058-0.004-0.116-0.008-0.174c-0.002-0.027-0.004-0.053-0.006-0.08
							c-0.001-0.012-0.002-0.023-0.003-0.035c-0.002-0.02-0.003-0.041-0.005-0.061c-0.006-0.059-0.012-0.118-0.02-0.177
							c-0.008-0.06-0.016-0.12-0.026-0.181c0-0.002-0.001-0.003-0.001-0.005c0-0.002-0.001-0.004-0.001-0.006
							c-0.009-0.057-0.019-0.114-0.03-0.171c-0.012-0.063-0.025-0.125-0.038-0.188c-0.005-0.022-0.01-0.044-0.015-0.066
							c-0.003-0.013-0.006-0.026-0.009-0.04c-0.007-0.028-0.012-0.055-0.019-0.083c-0.016-0.064-0.033-0.127-0.05-0.191
							c-0.013-0.046-0.027-0.093-0.041-0.139c-0.003-0.009-0.005-0.017-0.008-0.026c-0.003-0.008-0.005-0.017-0.007-0.025
							c-0.019-0.062-0.039-0.124-0.06-0.186c-0.021-0.061-0.042-0.122-0.064-0.184c-0.004-0.011-0.009-0.022-0.013-0.034
							c-0.003-0.009-0.007-0.018-0.01-0.028c-0.014-0.038-0.028-0.077-0.043-0.115c-0.023-0.058-0.046-0.117-0.07-0.175
							c-0.017-0.042-0.036-0.084-0.054-0.125c-0.003-0.007-0.006-0.015-0.009-0.022c-0.004-0.008-0.007-0.016-0.011-0.024
							c-0.026-0.058-0.052-0.116-0.079-0.174c-0.03-0.064-0.06-0.127-0.092-0.19c-0.005-0.01-0.01-0.019-0.015-0.029
							c-0.006-0.012-0.013-0.024-0.019-0.037c-0.026-0.05-0.051-0.101-0.078-0.151c-0.033-0.063-0.069-0.124-0.104-0.185
							c-0.018-0.031-0.034-0.063-0.053-0.094c-0.007-0.012-0.014-0.025-0.021-0.037c-0.032-0.054-0.067-0.105-0.099-0.158
							c-0.048-0.077-0.095-0.155-0.145-0.231c-0.008-0.012-0.015-0.025-0.023-0.037c-0.074-0.11-0.149-0.218-0.227-0.324
							c0,0-0.001-0.001-0.001-0.001c0,0,0,0,0,0c-0.052-0.071-0.106-0.141-0.16-0.21c-0.044-0.056-0.089-0.111-0.134-0.165
							c-0.001-0.001-0.003-0.003-0.004-0.005c0-0.001-0.001-0.001-0.002-0.002c-0.046-0.055-0.092-0.11-0.139-0.163
							c-0.046-0.053-0.093-0.104-0.14-0.155c-0.008-0.008-0.016-0.016-0.023-0.024c-0.008-0.009-0.017-0.017-0.025-0.026
							c-0.033-0.035-0.066-0.07-0.099-0.104c-0.05-0.051-0.101-0.101-0.152-0.15c-0.016-0.015-0.032-0.029-0.048-0.044
							c-0.012-0.011-0.024-0.022-0.036-0.034c-0.025-0.023-0.05-0.047-0.075-0.069c-0.053-0.048-0.107-0.094-0.16-0.14
							c-0.024-0.02-0.048-0.039-0.071-0.058c-0.012-0.01-0.024-0.02-0.036-0.029c-0.018-0.014-0.035-0.029-0.053-0.043
							c-0.052-0.041-0.105-0.082-0.158-0.121c-0.038-0.028-0.077-0.055-0.116-0.083c-0.007-0.005-0.014-0.01-0.021-0.015
							c-0.007-0.004-0.013-0.009-0.02-0.014c-0.051-0.035-0.102-0.069-0.153-0.101c-0.051-0.032-0.102-0.063-0.153-0.093
							c-0.012-0.007-0.024-0.014-0.035-0.021c-0.038-0.022-0.077-0.043-0.115-0.064c-0.049-0.027-0.099-0.052-0.148-0.077
							c-0.032-0.016-0.063-0.03-0.095-0.045c-0.008-0.004-0.015-0.007-0.023-0.011c-0.009-0.004-0.019-0.009-0.028-0.013
							c-0.048-0.022-0.096-0.042-0.144-0.061c-0.049-0.02-0.097-0.038-0.146-0.055c-0.008-0.003-0.016-0.005-0.025-0.008
							c-0.007-0.002-0.014-0.005-0.022-0.007c-0.033-0.011-0.065-0.022-0.098-0.032c-0.05-0.015-0.1-0.029-0.149-0.041
							c-0.024-0.006-0.047-0.01-0.071-0.016c-0.01-0.002-0.021-0.005-0.031-0.007c-0.015-0.003-0.031-0.007-0.046-0.01
							c-0.053-0.01-0.106-0.019-0.158-0.026c-0.032-0.004-0.063-0.007-0.095-0.01c-0.011-0.001-0.022-0.002-0.033-0.003
							c-0.011-0.001-0.022-0.003-0.032-0.003c-0.057-0.004-0.114-0.006-0.169-0.006c-0.025,0-0.048,0.003-0.073,0.003
							c-0.019,0.001-0.038,0.001-0.056,0.003c-0.019,0.001-0.039,0.001-0.058,0.003c-0.071,0.007-0.14,0.016-0.208,0.03
							c-0.001,0-0.002,0.001-0.004,0.001c-0.015,0.003-0.028,0.009-0.043,0.012c-0.07,0.016-0.139,0.033-0.205,0.056
							c-0.005,0.002-0.01,0.005-0.016,0.007c-0.096,0.035-0.189,0.077-0.276,0.128L74.05,143.443
							c0.088-0.051,0.18-0.093,0.276-0.128c0.071-0.026,0.145-0.046,0.22-0.064c0.015-0.003,0.028-0.009,0.043-0.012
							c0.087-0.018,0.177-0.028,0.27-0.034c0.019-0.001,0.037-0.002,0.056-0.003c0.089-0.003,0.18-0.002,0.274,0.005
							c0.011,0.001,0.022,0.003,0.033,0.003c0.097,0.009,0.197,0.025,0.299,0.046c0.01,0.002,0.021,0.005,0.031,0.007
							c0.104,0.023,0.21,0.053,0.317,0.089c0.007,0.002,0.015,0.005,0.022,0.007c0.112,0.039,0.226,0.084,0.342,0.137
							c0.008,0.004,0.016,0.008,0.024,0.011c0.117,0.055,0.236,0.116,0.357,0.185c0.122,0.07,0.242,0.147,0.361,0.229
							c0.007,0.005,0.014,0.01,0.021,0.015c0.111,0.077,0.22,0.16,0.327,0.247c0.012,0.01,0.024,0.02,0.036,0.029
							c0.104,0.085,0.206,0.174,0.306,0.268c0.012,0.011,0.024,0.022,0.036,0.034c0.102,0.096,0.201,0.196,0.299,0.299
							c0.008,0.008,0.016,0.017,0.024,0.026c0.104,0.111,0.206,0.226,0.305,0.345c0.001,0.001,0.002,0.003,0.003,0.004
							c0.101,0.122,0.199,0.247,0.294,0.376c0,0.001,0.001,0.001,0.001,0.001c0.086,0.117,0.169,0.238,0.25,0.36
							c0.05,0.076,0.097,0.154,0.145,0.231c0.04,0.065,0.082,0.13,0.12,0.196c0.018,0.031,0.035,0.063,0.053,0.094
							c0.063,0.111,0.124,0.223,0.182,0.336c0.006,0.012,0.013,0.024,0.019,0.037c0.069,0.138,0.135,0.277,0.197,0.418
							c0.003,0.007,0.006,0.014,0.009,0.021c0.06,0.138,0.116,0.277,0.168,0.416c0.003,0.009,0.007,0.018,0.01,0.027
							c0.052,0.143,0.1,0.286,0.144,0.429c0.003,0.008,0.005,0.017,0.007,0.026c0.041,0.138,0.078,0.276,0.11,0.414
							c0.003,0.013,0.006,0.027,0.009,0.04c0.033,0.142,0.061,0.285,0.083,0.426c0,0.002,0.001,0.004,0.001,0.006
							c0.023,0.142,0.039,0.284,0.051,0.424c0.001,0.011,0.002,0.023,0.003,0.035c0.011,0.14,0.017,0.28,0.017,0.417
							c0,0.137-0.007,0.269-0.019,0.396c-0.001,0.012-0.002,0.023-0.004,0.034c-0.012,0.117-0.028,0.229-0.049,0.336
							c-0.003,0.015-0.006,0.029-0.009,0.043c-0.022,0.104-0.048,0.204-0.077,0.3c-0.006,0.018-0.012,0.035-0.017,0.053
							c-0.03,0.09-0.063,0.176-0.101,0.258c-0.004,0.009-0.007,0.019-0.012,0.028c-0.044,0.093-0.092,0.181-0.145,0.263
							c-0.007,0.011-0.015,0.02-0.022,0.03c-0.044,0.066-0.091,0.128-0.14,0.186c-0.018,0.021-0.036,0.041-0.055,0.06
							c-0.043,0.046-0.089,0.09-0.135,0.131c-0.019,0.017-0.038,0.034-0.058,0.05c-0.067,0.053-0.135,0.103-0.208,0.145h0h0
							L259.615,47.917c0.073-0.042,0.142-0.092,0.208-0.145c0.02-0.016,0.039-0.033,0.059-0.05c0.047-0.041,0.092-0.085,0.135-0.131
							c0.019-0.02,0.037-0.04,0.055-0.061c0.049-0.058,0.096-0.12,0.14-0.185c0.007-0.011,0.015-0.02,0.022-0.031
							c0.002-0.002,0.003-0.005,0.005-0.007c0.049-0.077,0.095-0.16,0.136-0.247c0.001-0.003,0.002-0.006,0.004-0.009
							c0.004-0.009,0.008-0.019,0.012-0.028c0.025-0.054,0.049-0.11,0.071-0.168c0.011-0.029,0.02-0.06,0.03-0.09
							c0.006-0.018,0.012-0.035,0.018-0.053c0.005-0.016,0.011-0.031,0.016-0.048c0.018-0.06,0.034-0.121,0.048-0.184
							c0.005-0.022,0.009-0.046,0.014-0.068c0.003-0.014,0.006-0.028,0.009-0.043c0.004-0.022,0.009-0.043,0.013-0.065
							c0.01-0.056,0.018-0.114,0.026-0.172c0.004-0.032,0.007-0.066,0.01-0.099c0.001-0.012,0.002-0.023,0.003-0.034
							c0.001-0.014,0.003-0.027,0.004-0.041c0.005-0.056,0.008-0.112,0.01-0.17c0.002-0.057,0.004-0.115,0.004-0.175
							c0-0.003,0-0.007,0-0.01C260.667,45.55,260.667,45.495,260.665,45.441z"/>
						<path style="opacity:0.2;fill:#FFFFFF;" d="M260.665,45.441c-0.002-0.058-0.004-0.116-0.008-0.174
							c-0.002-0.027-0.004-0.053-0.006-0.08c-0.001-0.012-0.002-0.023-0.003-0.035c-0.002-0.02-0.003-0.041-0.005-0.061
							c-0.006-0.059-0.012-0.118-0.02-0.177c-0.008-0.06-0.016-0.12-0.026-0.181c0-0.002-0.001-0.003-0.001-0.005
							c0-0.002-0.001-0.004-0.001-0.006c-0.009-0.057-0.019-0.114-0.03-0.171c-0.012-0.063-0.025-0.125-0.038-0.188
							c-0.005-0.022-0.01-0.044-0.015-0.066c-0.003-0.013-0.006-0.026-0.009-0.04c-0.007-0.028-0.012-0.055-0.019-0.083
							c-0.016-0.064-0.033-0.127-0.05-0.191c-0.013-0.046-0.027-0.093-0.041-0.139c-0.003-0.009-0.005-0.017-0.008-0.026
							c-0.003-0.008-0.005-0.017-0.007-0.025c-0.019-0.062-0.039-0.124-0.06-0.186c-0.021-0.061-0.042-0.122-0.064-0.184
							c-0.004-0.011-0.009-0.022-0.013-0.034c-0.003-0.009-0.007-0.018-0.01-0.028c-0.014-0.038-0.028-0.077-0.043-0.115
							c-0.023-0.058-0.046-0.117-0.07-0.175c-0.017-0.042-0.036-0.084-0.054-0.125c-0.003-0.007-0.006-0.015-0.009-0.022
							c-0.004-0.008-0.007-0.016-0.011-0.024c-0.026-0.058-0.052-0.116-0.079-0.174c-0.03-0.064-0.06-0.127-0.092-0.19
							c-0.005-0.01-0.01-0.019-0.015-0.029c-0.006-0.012-0.013-0.024-0.019-0.037c-0.026-0.05-0.051-0.101-0.078-0.151
							c-0.033-0.063-0.069-0.124-0.104-0.185c-0.018-0.031-0.034-0.063-0.053-0.094c-0.007-0.012-0.014-0.025-0.021-0.037
							c-0.032-0.054-0.067-0.105-0.099-0.158c-0.048-0.077-0.095-0.155-0.145-0.231c-0.008-0.012-0.015-0.025-0.023-0.037
							c-0.074-0.11-0.149-0.218-0.227-0.324c0,0-0.001-0.001-0.001-0.001c0,0,0,0,0,0c-0.052-0.071-0.106-0.141-0.16-0.21
							c-0.044-0.056-0.089-0.111-0.134-0.165c-0.001-0.001-0.003-0.003-0.004-0.005c0-0.001-0.001-0.001-0.002-0.002
							c-0.046-0.055-0.092-0.11-0.139-0.163c-0.046-0.053-0.093-0.104-0.14-0.155c-0.008-0.008-0.016-0.016-0.023-0.024
							c-0.008-0.009-0.017-0.017-0.025-0.026c-0.033-0.035-0.066-0.07-0.099-0.104c-0.05-0.051-0.101-0.101-0.152-0.15
							c-0.016-0.015-0.032-0.029-0.048-0.044c-0.012-0.011-0.024-0.022-0.036-0.034c-0.025-0.023-0.05-0.047-0.075-0.069
							c-0.053-0.048-0.107-0.094-0.16-0.14c-0.024-0.02-0.048-0.039-0.071-0.058c-0.012-0.01-0.024-0.02-0.036-0.029
							c-0.018-0.014-0.035-0.029-0.053-0.043c-0.052-0.041-0.105-0.082-0.158-0.121c-0.038-0.028-0.077-0.055-0.116-0.083
							c-0.007-0.005-0.014-0.01-0.021-0.015c-0.007-0.004-0.013-0.009-0.02-0.014c-0.051-0.035-0.102-0.069-0.153-0.101
							c-0.051-0.032-0.102-0.063-0.153-0.093c-0.012-0.007-0.024-0.014-0.035-0.021c-0.038-0.022-0.077-0.043-0.115-0.064
							c-0.049-0.027-0.099-0.052-0.148-0.077c-0.032-0.016-0.063-0.03-0.095-0.045c-0.008-0.004-0.015-0.007-0.023-0.011
							c-0.009-0.004-0.019-0.009-0.028-0.013c-0.048-0.022-0.096-0.042-0.144-0.061c-0.049-0.02-0.097-0.038-0.146-0.055
							c-0.008-0.003-0.016-0.005-0.025-0.008c-0.007-0.002-0.014-0.005-0.022-0.007c-0.033-0.011-0.065-0.022-0.098-0.032
							c-0.05-0.015-0.1-0.029-0.149-0.041c-0.024-0.006-0.047-0.01-0.071-0.016c-0.01-0.002-0.021-0.005-0.031-0.007
							c-0.015-0.003-0.031-0.007-0.046-0.01c-0.053-0.01-0.106-0.019-0.158-0.026c-0.032-0.004-0.063-0.007-0.095-0.01
							c-0.011-0.001-0.022-0.002-0.033-0.003c-0.011-0.001-0.022-0.003-0.032-0.003c-0.057-0.004-0.114-0.006-0.169-0.006
							c-0.025,0-0.048,0.003-0.073,0.003c-0.019,0.001-0.038,0.001-0.056,0.003c-0.019,0.001-0.039,0.001-0.058,0.003
							c-0.071,0.007-0.14,0.016-0.208,0.03c-0.001,0-0.002,0.001-0.004,0.001c-0.015,0.003-0.028,0.009-0.043,0.012
							c-0.07,0.016-0.139,0.033-0.205,0.056c-0.005,0.002-0.01,0.005-0.016,0.007c-0.096,0.035-0.189,0.077-0.276,0.128
							L74.05,143.443c0.088-0.051,0.18-0.093,0.276-0.128c0.071-0.026,0.145-0.046,0.22-0.064c0.015-0.003,0.028-0.009,0.043-0.012
							c0.087-0.018,0.177-0.028,0.27-0.034c0.019-0.001,0.037-0.002,0.056-0.003c0.089-0.003,0.18-0.002,0.274,0.005
							c0.011,0.001,0.022,0.003,0.033,0.003c0.097,0.009,0.197,0.025,0.299,0.046c0.01,0.002,0.021,0.005,0.031,0.007
							c0.104,0.023,0.21,0.053,0.317,0.089c0.007,0.002,0.015,0.005,0.022,0.007c0.112,0.039,0.226,0.084,0.342,0.137
							c0.008,0.004,0.016,0.008,0.024,0.011c0.117,0.055,0.236,0.116,0.357,0.185c0.122,0.07,0.242,0.147,0.361,0.229
							c0.007,0.005,0.014,0.01,0.021,0.015c0.111,0.077,0.22,0.16,0.327,0.247c0.012,0.01,0.024,0.02,0.036,0.029
							c0.104,0.085,0.206,0.174,0.306,0.268c0.012,0.011,0.024,0.022,0.036,0.034c0.102,0.096,0.201,0.196,0.299,0.299
							c0.008,0.008,0.016,0.017,0.024,0.026c0.104,0.111,0.206,0.226,0.305,0.345c0.001,0.001,0.002,0.003,0.003,0.004
							c0.101,0.122,0.199,0.247,0.294,0.376c0,0.001,0.001,0.001,0.001,0.001c0.086,0.117,0.169,0.238,0.25,0.36
							c0.05,0.076,0.097,0.154,0.145,0.231c0.04,0.065,0.082,0.13,0.12,0.196c0.018,0.031,0.035,0.063,0.053,0.094
							c0.063,0.111,0.124,0.223,0.182,0.336c0.006,0.012,0.013,0.024,0.019,0.037c0.069,0.138,0.135,0.277,0.197,0.418
							c0.003,0.007,0.006,0.014,0.009,0.021c0.06,0.138,0.116,0.277,0.168,0.416c0.003,0.009,0.007,0.018,0.01,0.027
							c0.052,0.143,0.1,0.286,0.144,0.429c0.003,0.008,0.005,0.017,0.007,0.026c0.041,0.138,0.078,0.276,0.11,0.414
							c0.003,0.013,0.006,0.027,0.009,0.04c0.033,0.142,0.061,0.285,0.083,0.426c0,0.002,0.001,0.004,0.001,0.006
							c0.023,0.142,0.039,0.284,0.051,0.424c0.001,0.011,0.002,0.023,0.003,0.035c0.011,0.14,0.017,0.28,0.017,0.417
							c0,0.137-0.007,0.269-0.019,0.396c-0.001,0.012-0.002,0.023-0.004,0.034c-0.012,0.117-0.028,0.229-0.049,0.336
							c-0.003,0.015-0.006,0.029-0.009,0.043c-0.022,0.104-0.048,0.204-0.077,0.3c-0.006,0.018-0.012,0.035-0.017,0.053
							c-0.03,0.09-0.063,0.176-0.101,0.258c-0.004,0.009-0.007,0.019-0.012,0.028c-0.044,0.093-0.092,0.181-0.145,0.263
							c-0.007,0.011-0.015,0.02-0.022,0.03c-0.044,0.066-0.091,0.128-0.14,0.186c-0.018,0.021-0.036,0.041-0.055,0.06
							c-0.043,0.046-0.089,0.09-0.135,0.131c-0.019,0.017-0.038,0.034-0.058,0.05c-0.067,0.053-0.135,0.103-0.208,0.145h0h0
							L259.615,47.917c0.073-0.042,0.142-0.092,0.208-0.145c0.02-0.016,0.039-0.033,0.059-0.05c0.047-0.041,0.092-0.085,0.135-0.131
							c0.019-0.02,0.037-0.04,0.055-0.061c0.049-0.058,0.096-0.12,0.14-0.185c0.007-0.011,0.015-0.02,0.022-0.031
							c0.002-0.002,0.003-0.005,0.005-0.007c0.049-0.077,0.095-0.16,0.136-0.247c0.001-0.003,0.002-0.006,0.004-0.009
							c0.004-0.009,0.008-0.019,0.012-0.028c0.025-0.054,0.049-0.11,0.071-0.168c0.011-0.029,0.02-0.06,0.03-0.09
							c0.006-0.018,0.012-0.035,0.018-0.053c0.005-0.016,0.011-0.031,0.016-0.048c0.018-0.06,0.034-0.121,0.048-0.184
							c0.005-0.022,0.009-0.046,0.014-0.068c0.003-0.014,0.006-0.028,0.009-0.043c0.004-0.022,0.009-0.043,0.013-0.065
							c0.01-0.056,0.018-0.114,0.026-0.172c0.004-0.032,0.007-0.066,0.01-0.099c0.001-0.012,0.002-0.023,0.003-0.034
							c0.001-0.014,0.003-0.027,0.004-0.041c0.005-0.056,0.008-0.112,0.01-0.17c0.002-0.057,0.004-0.115,0.004-0.175
							c0-0.003,0-0.007,0-0.01C260.667,45.55,260.667,45.495,260.665,45.441z"/>
					</g>
				</g>
			</g>
			<g>
				<g>
					<path style="fill:#E0E0E0;" d="M78.649,365.099c-3.1,1.802-8.142,1.802-11.263,0c-1.56-0.901-2.345-2.082-2.351-3.262h0v4.613
						c0.007,1.181,0.791,2.361,2.351,3.262c3.12,1.802,8.163,1.801,11.263,0c1.55-0.901,2.321-2.081,2.314-3.262v-4.613
						C80.97,363.017,80.199,364.198,78.649,365.099z"/>
					<path style="fill:#F0F0F0;" d="M67.386,365.099c3.12,1.801,8.163,1.801,11.263,0c1.55-0.901,2.321-2.081,2.314-3.262
						c-0.007-1.181-0.791-2.361-2.351-3.262c-3.12-1.802-8.163-1.802-11.263,0c-1.55,0.901-2.321,2.082-2.314,3.262
						C65.041,363.017,65.826,364.198,67.386,365.099z"/>
				</g>
				<path style="fill:#E0E0E0;" d="M70.745,150.336v211.012l0,0c0.002,0.334,0.224,0.668,0.665,0.923c0.883,0.51,2.31,0.51,3.188,0
					c0.439-0.255,0.657-0.589,0.655-0.923V150.336H70.745z"/>
			</g>
			<g>
				<g>
					<path style="fill:#E0E0E0;" d="M59.318,155.839c0.944,0.545,1.707,1.866,1.704,2.951c-0.003,1.085-0.771,1.522-1.715,0.977
						c-0.944-0.545-1.707-1.866-1.704-2.951C57.606,155.732,58.374,155.294,59.318,155.839z"/>
				</g>
				<path style="fill:#E6E6E6;" d="M77.986,148.846c-0.001-0.027-0.002-0.055-0.004-0.083c-0.001-0.012-0.002-0.025-0.003-0.038
					c0-0.005-0.001-0.011-0.001-0.016c-0.001-0.01-0.001-0.019-0.002-0.029c-0.003-0.028-0.006-0.056-0.009-0.084
					c-0.004-0.029-0.008-0.057-0.012-0.086c0-0.001,0-0.002-0.001-0.003c0-0.001,0-0.002,0-0.003
					c-0.004-0.027-0.009-0.054-0.014-0.081c-0.006-0.03-0.012-0.059-0.018-0.089c-0.002-0.01-0.005-0.021-0.007-0.031
					c-0.001-0.006-0.003-0.012-0.004-0.019c-0.003-0.013-0.006-0.026-0.009-0.039c-0.007-0.03-0.016-0.061-0.024-0.091
					c-0.006-0.022-0.013-0.044-0.019-0.066c-0.001-0.004-0.002-0.008-0.004-0.012c-0.001-0.004-0.002-0.008-0.004-0.012
					c-0.009-0.029-0.019-0.059-0.028-0.088c-0.01-0.029-0.02-0.058-0.03-0.087c-0.002-0.005-0.004-0.011-0.006-0.016
					c-0.002-0.004-0.003-0.009-0.005-0.013c-0.007-0.018-0.013-0.036-0.021-0.055c-0.011-0.028-0.022-0.055-0.033-0.083
					c-0.008-0.02-0.017-0.04-0.025-0.06c-0.001-0.003-0.003-0.007-0.004-0.01c-0.002-0.004-0.003-0.008-0.005-0.012
					c-0.012-0.028-0.025-0.055-0.038-0.083c-0.014-0.03-0.029-0.06-0.044-0.09c-0.002-0.005-0.005-0.009-0.007-0.014
					c-0.003-0.006-0.006-0.012-0.009-0.018c-0.012-0.024-0.024-0.048-0.037-0.071c-0.016-0.03-0.033-0.059-0.049-0.088
					c-0.008-0.015-0.016-0.03-0.025-0.045c-0.003-0.006-0.007-0.012-0.01-0.018c-0.015-0.025-0.032-0.05-0.047-0.075
					c-0.023-0.037-0.045-0.074-0.069-0.109c-0.004-0.006-0.007-0.012-0.011-0.018c-0.035-0.052-0.071-0.103-0.108-0.153
					c0,0,0-0.001,0-0.001c0,0,0,0,0,0c-0.025-0.034-0.05-0.067-0.076-0.1c-0.021-0.026-0.042-0.052-0.063-0.078
					c-0.001-0.001-0.001-0.002-0.002-0.002c0,0-0.001-0.001-0.001-0.001c-0.022-0.026-0.044-0.052-0.066-0.077
					c-0.022-0.025-0.044-0.049-0.066-0.074c-0.004-0.004-0.007-0.008-0.011-0.012c-0.004-0.004-0.008-0.008-0.012-0.012
					c-0.016-0.017-0.031-0.033-0.047-0.049c-0.024-0.024-0.048-0.048-0.072-0.071c-0.007-0.007-0.015-0.014-0.023-0.021
					c-0.006-0.005-0.011-0.011-0.017-0.016c-0.012-0.011-0.023-0.022-0.035-0.033c-0.025-0.023-0.05-0.045-0.076-0.066
					c-0.011-0.01-0.023-0.018-0.034-0.028c-0.006-0.005-0.011-0.009-0.017-0.014c-0.008-0.007-0.017-0.014-0.025-0.02
					c-0.025-0.02-0.05-0.039-0.075-0.057c-0.018-0.013-0.037-0.026-0.055-0.039c-0.003-0.002-0.007-0.005-0.01-0.007
					c-0.003-0.002-0.006-0.005-0.009-0.007c-0.024-0.017-0.048-0.032-0.073-0.048c-0.024-0.015-0.048-0.03-0.072-0.044
					c-0.006-0.003-0.011-0.007-0.017-0.01c-0.018-0.01-0.036-0.021-0.054-0.03c-0.023-0.013-0.047-0.025-0.07-0.036
					c-0.015-0.007-0.03-0.014-0.045-0.021c-0.004-0.002-0.007-0.003-0.011-0.005c-0.005-0.002-0.009-0.004-0.013-0.006
					c-0.023-0.01-0.046-0.02-0.069-0.029c-0.023-0.009-0.046-0.018-0.069-0.026c-0.004-0.001-0.008-0.002-0.012-0.004
					c-0.003-0.001-0.007-0.002-0.01-0.003c-0.016-0.005-0.031-0.011-0.047-0.015c-0.024-0.007-0.047-0.014-0.071-0.019
					c-0.011-0.003-0.022-0.005-0.034-0.007c-0.005-0.001-0.01-0.002-0.015-0.003c-0.007-0.001-0.015-0.003-0.022-0.005
					c-0.025-0.005-0.05-0.009-0.075-0.012c-0.015-0.002-0.03-0.003-0.045-0.005c-0.005,0-0.011-0.001-0.016-0.002
					c-0.005,0-0.01-0.001-0.015-0.002c-0.027-0.002-0.054-0.003-0.08-0.003c-0.012,0-0.023,0.001-0.034,0.002
					c-0.009,0-0.018,0.001-0.027,0.001c-0.009,0.001-0.019,0-0.028,0.001c-0.034,0.003-0.066,0.008-0.098,0.014
					c-0.001,0-0.001,0-0.002,0.001c-0.007,0.001-0.014,0.004-0.02,0.006c-0.033,0.007-0.066,0.016-0.097,0.027
					c-0.003,0.001-0.005,0.002-0.007,0.003c-0.046,0.017-0.09,0.036-0.131,0.061l-16.965,9.868c0.042-0.024,0.086-0.044,0.131-0.061
					c0.034-0.012,0.069-0.022,0.104-0.03c0.007-0.002,0.013-0.004,0.021-0.006c0.041-0.008,0.084-0.013,0.128-0.016
					c0.009-0.001,0.018-0.001,0.027-0.001c0.042-0.002,0.085-0.001,0.13,0.003c0.005,0,0.011,0.001,0.016,0.002
					c0.046,0.005,0.094,0.012,0.142,0.022c0.005,0.001,0.01,0.002,0.015,0.003c0.049,0.011,0.099,0.025,0.15,0.042
					c0.004,0.001,0.007,0.002,0.011,0.003c0.053,0.018,0.107,0.04,0.162,0.065c0.004,0.002,0.008,0.004,0.011,0.005
					c0.056,0.026,0.112,0.055,0.169,0.088c0.058,0.033,0.115,0.07,0.171,0.109c0.003,0.002,0.007,0.005,0.01,0.007
					c0.052,0.037,0.104,0.076,0.155,0.117c0.006,0.005,0.012,0.009,0.017,0.014c0.049,0.04,0.098,0.083,0.145,0.127
					c0.006,0.005,0.011,0.011,0.017,0.016c0.048,0.045,0.095,0.093,0.142,0.142c0.004,0.004,0.008,0.008,0.012,0.012
					c0.049,0.053,0.098,0.107,0.145,0.164c0,0.001,0.001,0.001,0.001,0.002c0.048,0.058,0.095,0.117,0.14,0.178c0,0,0,0,0,0.001
					c0.041,0.056,0.08,0.113,0.119,0.171c0.024,0.036,0.046,0.073,0.069,0.11c0.019,0.031,0.039,0.061,0.057,0.093
					c0.008,0.015,0.017,0.03,0.025,0.045c0.03,0.053,0.059,0.106,0.086,0.159c0.003,0.006,0.006,0.012,0.009,0.018
					c0.033,0.065,0.064,0.131,0.093,0.198c0.001,0.003,0.003,0.007,0.004,0.01c0.028,0.065,0.055,0.131,0.079,0.197
					c0.002,0.004,0.003,0.009,0.005,0.013c0.025,0.068,0.048,0.136,0.068,0.204c0.001,0.004,0.002,0.008,0.004,0.012
					c0.02,0.065,0.037,0.131,0.052,0.196c0.001,0.006,0.003,0.012,0.004,0.019c0.015,0.067,0.029,0.135,0.04,0.202
					c0,0.001,0,0.002,0,0.003c0.011,0.068,0.019,0.135,0.024,0.201c0,0.005,0.001,0.011,0.001,0.016
					c0.005,0.066,0.008,0.133,0.008,0.198c0,0.065-0.003,0.127-0.009,0.188c-0.001,0.005-0.001,0.011-0.002,0.016
					c-0.006,0.055-0.013,0.108-0.023,0.159c-0.001,0.007-0.003,0.014-0.004,0.02c-0.01,0.05-0.023,0.097-0.037,0.142
					c-0.003,0.008-0.006,0.017-0.008,0.025c-0.014,0.043-0.03,0.083-0.048,0.122c-0.002,0.004-0.004,0.009-0.006,0.013
					c-0.021,0.044-0.044,0.086-0.069,0.125c-0.003,0.005-0.007,0.009-0.01,0.014c-0.021,0.031-0.043,0.061-0.067,0.088
					c-0.008,0.01-0.017,0.019-0.026,0.029c-0.02,0.022-0.042,0.043-0.064,0.062c-0.009,0.008-0.018,0.016-0.028,0.024
					c-0.032,0.025-0.064,0.049-0.099,0.069l0,0l0,0l16.965-9.868c0.035-0.02,0.067-0.044,0.099-0.069
					c0.01-0.008,0.019-0.016,0.028-0.024c0.022-0.019,0.044-0.04,0.064-0.062c0.009-0.01,0.018-0.019,0.026-0.029
					c0.023-0.027,0.046-0.057,0.066-0.088c0.003-0.005,0.007-0.009,0.01-0.015c0.001-0.001,0.002-0.002,0.002-0.003
					c0.023-0.037,0.045-0.076,0.064-0.117c0.001-0.001,0.001-0.003,0.002-0.004c0.002-0.004,0.004-0.009,0.006-0.013
					c0.012-0.026,0.023-0.052,0.034-0.079c0.005-0.014,0.009-0.028,0.014-0.043c0.003-0.008,0.006-0.017,0.008-0.025
					c0.002-0.008,0.005-0.015,0.007-0.023c0.008-0.028,0.016-0.057,0.023-0.087c0.002-0.01,0.004-0.022,0.007-0.032
					c0.001-0.007,0.003-0.014,0.004-0.02c0.002-0.01,0.004-0.02,0.006-0.031c0.005-0.027,0.009-0.054,0.012-0.082
					c0.002-0.015,0.003-0.031,0.005-0.047c0-0.006,0.001-0.011,0.002-0.016c0.001-0.007,0.002-0.013,0.002-0.019
					c0.002-0.026,0.004-0.053,0.005-0.081c0.001-0.027,0.002-0.055,0.002-0.083c0-0.002,0-0.003,0-0.005
					C77.987,148.897,77.987,148.871,77.986,148.846z"/>
			</g>
		</g>
		<g>
			<polygon style="fill:#D63939;" points="121.715,256.599 121.692,248.554 105.779,257.741 105.802,265.787 			"/>
			<polygon style="fill:#D63939;" points="121.67,240.759 105.757,249.947 105.779,257.741 121.692,248.554 			"/>

				<line style="fill:none;stroke:#D63939;stroke-width:0;stroke-linecap:round;stroke-linejoin:round;" x1="121.715" y1="256.599" x2="105.802" y2="265.787"/>
			<polygon style="fill:#D63939;" points="105.802,265.787 105.779,257.741 105.779,257.741 			"/>
			<polygon style="fill:#D63939;" points="141.799,199.457 125.887,208.644 125.95,231.014 141.863,221.827 			"/>
			<polygon style="fill:#D63939;" points="126.016,254.116 141.928,244.929 141.863,221.827 125.95,231.014 125.95,231.014 			"/>
			<polygon style="fill:#D63939;" points="146.072,183.856 146.238,242.441 146.154,212.673 162.067,203.486 161.985,174.669 			"/>
			<polygon style="fill:#D63939;" points="182.275,186.659 166.362,195.846 166.411,213.023 182.323,203.836 			"/>
			<polygon style="fill:#D63939;" points="146.238,242.441 162.151,233.253 162.067,203.486 146.154,212.673 			"/>
			<polygon style="fill:#D63939;" points="206.897,207.419 222.81,198.232 222.688,155.32 206.776,164.507 			"/>
			<polygon style="fill:#D63939;" points="186.675,219.095 202.587,209.907 202.496,177.695 186.583,186.882 			"/>
			<polygon style="fill:#D63939;" points="166.461,230.765 182.374,221.578 182.323,203.836 166.411,213.023 166.411,213.023 			"/>
			<polygon style="opacity:0.2;" points="121.715,256.599 121.692,248.554 105.779,257.741 105.802,265.787 			"/>
			<polygon style="opacity:0.2;" points="126.016,254.116 141.928,244.929 141.863,221.827 125.95,231.014 125.95,231.014 			"/>
			<polygon style="opacity:0.2;" points="146.238,242.441 162.151,233.253 162.067,203.486 146.154,212.673 			"/>
			<polygon style="opacity:0.2;" points="206.897,207.419 222.81,198.232 222.688,155.32 206.776,164.507 			"/>
			<polygon style="opacity:0.2;" points="186.675,219.095 202.587,209.907 202.496,177.695 186.583,186.882 			"/>
			<polygon style="opacity:0.2;" points="166.461,230.765 182.374,221.578 182.323,203.836 166.411,213.023 166.411,213.023 			"/>
			<polygon style="fill:#D63939;" points="206.776,164.507 222.688,155.32 222.571,113.777 206.658,122.964 			"/>

				<line style="fill:none;stroke:#D63939;stroke-width:0;stroke-linecap:round;stroke-linejoin:round;" x1="206.897" y1="207.419" x2="222.81" y2="198.232"/>
			<polygon style="fill:#D63939;" points="206.776,164.507 206.897,207.419 206.776,164.507 			"/>
			<polygon style="fill:#D63939;" points="186.495,155.693 186.675,219.095 186.583,186.882 202.496,177.695 202.408,146.506 			"/>

				<line style="fill:none;stroke:#D63939;stroke-width:0;stroke-linecap:round;stroke-linejoin:round;" x1="202.587" y1="209.907" x2="186.675" y2="219.095"/>
			<polygon style="fill:#D63939;" points="174.594,163.098 214.753,93.549 219.561,96.289 222.464,76.225 206.561,88.881
				211.168,91.506 174.57,154.896 150.925,141.421 105.683,223.909 150.948,149.633 			"/>
			<polygon style="opacity:0.2;" points="174.594,163.098 214.753,93.549 219.561,96.289 222.464,76.225 206.561,88.881
				211.168,91.506 174.57,154.896 150.925,141.421 105.683,223.909 150.948,149.633 			"/>
			<polygon style="fill:#D63939;" points="243.589,196.449 243.582,193.837 98.094,277.835 97.756,158.419 95.483,159.731
				95.821,279.147 85.073,285.352 85.081,287.964 95.828,281.759 95.864,294.141 98.137,292.828 98.102,280.447 			"/>
			<polygon style="opacity:0.8;fill:#FFFFFF;" points="243.589,196.449 243.582,193.837 98.094,277.835 97.756,158.419
				95.483,159.731 95.821,279.147 85.073,285.352 85.081,287.964 95.828,281.759 95.864,294.141 98.137,292.828 98.102,280.447
				"/>
		</g>
	</g>
</g>
<g id="Chart_3">
	<g>
		<g>
			<g>
				<g>
					<path style="fill:#D63939;" d="M372.362,239.107l-0.134,51.317c-0.002,0.853,0.599,1.893,1.342,2.322l66.649,38.48v1.525
						l1.632-1.032c0.003-0.001,0.005-0.003,0.007-0.005l0.047-0.03l-0.006-0.004c0.215-0.15,0.35-0.431,0.351-0.828l0.14-53.346
						l-1.68,1.062L372.362,239.107z"/>
					<path style="opacity:0.3;fill:#FFFFFF;" d="M372.362,239.107l-0.134,51.317c-0.002,0.853,0.599,1.893,1.342,2.322l66.649,38.48
						v1.525l1.632-1.032c0.003-0.001,0.005-0.003,0.007-0.005l0.047-0.03l-0.006-0.004c0.215-0.15,0.35-0.431,0.351-0.828
						l0.14-53.346l-1.68,1.062L372.362,239.107z"/>
					<path style="fill:#D63939;" d="M441.057,273.127l-67.332-38.874c-0.419-0.242-0.789-0.231-1.037-0.029v-0.009l-1.593,1.003
						l1.277,0.726l-0.003,1.135l-0.006,2.029l68.348,39.461l1.68-1.062l0.006-2.059C442.399,274.594,441.8,273.556,441.057,273.127z
						"/>
				</g>
				<g>
					<path style="fill:#D63939;" d="M440.711,278.568l-0.14,53.346c-0.002,0.853-0.606,1.197-1.349,0.768l-67.332-38.874
						c-0.743-0.429-1.344-1.468-1.342-2.322l0.14-53.346L440.711,278.568z"/>
				</g>
				<g style="opacity:0.5;">
					<path style="fill:#FFFFFF;" d="M440.711,278.568l-0.14,53.346c-0.002,0.853-0.606,1.197-1.349,0.768l-67.332-38.874
						c-0.743-0.429-1.344-1.468-1.342-2.322l0.14-53.346L440.711,278.568z"/>
				</g>
				<g>
					<path style="fill:#F5F5F5;" d="M372.621,236.775c0.326,0.188,0.588,0.642,0.587,1.016c-0.001,0.372-0.265,0.525-0.59,0.336
						c-0.324-0.187-0.588-0.644-0.587-1.016C372.032,236.737,372.298,236.588,372.621,236.775z"/>
				</g>
				<g>
					<path style="fill:#F5F5F5;" d="M374.332,237.763c0.326,0.188,0.588,0.642,0.587,1.016c-0.001,0.372-0.265,0.524-0.59,0.336
						s-0.588-0.644-0.587-1.016C373.743,237.725,374.007,237.575,374.332,237.763z"/>
				</g>
				<g>
					<path style="fill:#F5F5F5;" d="M376.043,238.751c0.326,0.188,0.588,0.642,0.587,1.016c-0.001,0.372-0.265,0.524-0.59,0.336
						c-0.326-0.188-0.588-0.644-0.587-1.016C375.454,238.713,375.718,238.563,376.043,238.751z"/>
				</g>
				<g>
					<path style="fill:#D63939;" d="M439.377,274.189c0.743,0.429,1.342,1.467,1.34,2.321l-0.006,2.059l-70.023-40.428l0.006-2.059
						c0.003-0.853,0.608-1.196,1.351-0.767L439.377,274.189z M374.328,239.115c0.326,0.188,0.589,0.035,0.59-0.336
						c0.001-0.374-0.261-0.828-0.587-1.016c-0.326-0.188-0.589-0.038-0.59,0.336C373.741,238.471,374.003,238.927,374.328,239.115
						 M376.04,240.103c0.326,0.188,0.589,0.035,0.59-0.336c0.001-0.374-0.261-0.828-0.587-1.016
						c-0.326-0.188-0.589-0.038-0.59,0.336C375.452,239.459,375.714,239.915,376.04,240.103 M372.617,238.127
						c0.326,0.188,0.589,0.035,0.591-0.336c0.001-0.374-0.261-0.828-0.587-1.016c-0.324-0.187-0.589-0.038-0.59,0.336
						C372.03,237.483,372.294,237.941,372.617,238.127"/>
				</g>
				<g style="opacity:0.2;">
					<path style="fill:#FFFFFF;" d="M439.377,274.189c0.743,0.429,1.342,1.467,1.34,2.321l-0.006,2.059l-70.023-40.428l0.006-2.059
						c0.003-0.853,0.608-1.196,1.351-0.767L439.377,274.189z M374.328,239.115c0.326,0.188,0.589,0.035,0.59-0.336
						c0.001-0.374-0.261-0.828-0.587-1.016c-0.326-0.188-0.589-0.038-0.59,0.336C373.741,238.471,374.003,238.927,374.328,239.115
						 M376.04,240.103c0.326,0.188,0.589,0.035,0.59-0.336c0.001-0.374-0.261-0.828-0.587-1.016
						c-0.326-0.188-0.589-0.038-0.59,0.336C375.452,239.459,375.714,239.915,376.04,240.103 M372.617,238.127
						c0.326,0.188,0.589,0.035,0.591-0.336c0.001-0.374-0.261-0.828-0.587-1.016c-0.324-0.187-0.589-0.038-0.59,0.336
						C372.03,237.483,372.294,237.941,372.617,238.127"/>
				</g>
				<path style="opacity:0.5;fill:#FFFFFF;" d="M441.057,273.127l-67.332-38.874c-0.419-0.242-0.789-0.231-1.037-0.029v-0.009
					l-1.589,1c0.244-0.135,0.578-0.113,0.946,0.1l67.332,38.874c0.743,0.429,1.342,1.467,1.34,2.321l-0.006,2.059l1.68-1.062
					l0.006-2.059C442.399,274.594,441.8,273.556,441.057,273.127z"/>
			</g>
		</g>
		<g style="opacity:0.5;">
			<path style="fill:#FFFFFF;" d="M376.903,287.365l57.562,33.234l0.075-40.526c-1.921-0.807-4.421,0.064-6.22,1.116
				c-1.799,1.052-3.28,2.558-4.916,3.849c-1.636,1.291-3.548,2.406-5.632,2.445c-2.953,0.056-5.486-2.01-8.318-2.847
				c-4.155-1.228-8.567,0.261-12.681,1.619c-4.114,1.358-8.684,2.584-12.672,0.891c-1.209-0.513-2.317-1.282-3.59-1.605
				C379.238,285.218,377.555,286.224,376.903,287.365z"/>
		</g>
		<g>
			<g>
				<polygon style="fill:#FFFFFF;" points="389.985,274.009 389.98,275.511 377.993,268.59 377.997,267.088 				"/>
			</g>
			<polygon style="fill:#FFFFFF;" points="378.004,264.552 378,266.054 393.35,274.916 393.35,273.411 			"/>
			<g>
				<polygon style="fill:#FFFFFF;" points="397.438,269.829 397.434,271.331 378.017,260.121 378.021,258.619 				"/>
			</g>
			<g>
				<polygon style="fill:#FFFFFF;" points="406.454,272.494 406.45,273.996 378.024,257.584 378.029,256.082 				"/>
			</g>
			<g>
				<polygon style="fill:#FFFFFF;" points="406.462,269.957 406.457,271.463 378.031,255.051 378.036,253.546 				"/>
			</g>
			<g>
				<polygon style="fill:#FFFFFF;" points="393.35,258.671 393.343,261.006 378.04,252.171 378.046,249.836 				"/>
			</g>
		</g>
		<g>
			<polygon style="fill:#D63939;" points="418.964,273.219 424.517,277.226 422.941,282.511 421.696,279.602 382.863,284.68
				420.203,276.124 			"/>
		</g>
	</g>
</g>
<g id="Chart_2">
	<g>
		<path style="opacity:0.1;" d="M440.571,258.722c-0.001,0.398-0.136,0.679-0.352,0.829v0.007l1.632-1.032
			c0.003-0.001,0.005-0.003,0.007-0.005l0.047-0.03l-0.006-0.004c0.215-0.15,0.35-0.431,0.351-0.828l0.14-53.346l-1.68,1.062
			L440.571,258.722z"/>
		<g>
			<g>
				<path style="fill:#D63939;" d="M372.362,165.914l-0.134,51.317c-0.002,0.853,0.599,1.893,1.342,2.322l66.649,38.48v1.525
					l1.632-1.032c0.003-0.001,0.005-0.003,0.007-0.005l0.047-0.03l-0.006-0.004c0.215-0.15,0.35-0.431,0.351-0.828l0.14-53.346
					l-1.68,1.062L372.362,165.914z"/>
				<path style="opacity:0.3;fill:#FFFFFF;" d="M372.362,165.914l-0.134,51.317c-0.002,0.853,0.599,1.893,1.342,2.322l66.649,38.48
					v1.525l1.632-1.032c0.003-0.001,0.005-0.003,0.007-0.005l0.047-0.03l-0.006-0.004c0.215-0.15,0.35-0.431,0.351-0.828
					l0.14-53.346l-1.68,1.062L372.362,165.914z"/>
				<path style="fill:#D63939;" d="M441.057,199.934l-67.332-38.874c-0.419-0.242-0.789-0.231-1.037-0.029v-0.009l-1.593,1.003
					l1.277,0.726l-0.003,1.135l-0.006,2.029l68.348,39.461l1.68-1.062l0.006-2.059C442.399,201.401,441.8,200.363,441.057,199.934z"
					/>
			</g>
			<g>
				<path style="fill:#D63939;" d="M440.711,205.375l-0.14,53.346c-0.002,0.853-0.606,1.197-1.349,0.768l-67.332-38.874
					c-0.743-0.429-1.344-1.468-1.342-2.322l0.14-53.346L440.711,205.375z"/>
			</g>
			<g style="opacity:0.5;">
				<path style="fill:#FFFFFF;" d="M440.711,205.375l-0.14,53.346c-0.002,0.853-0.606,1.197-1.349,0.768l-67.332-38.874
					c-0.743-0.429-1.344-1.468-1.342-2.322l0.14-53.346L440.711,205.375z"/>
			</g>
			<g>
				<path style="fill:#F5F5F5;" d="M372.621,163.582c0.326,0.188,0.588,0.642,0.587,1.016c-0.001,0.372-0.265,0.524-0.59,0.336
					c-0.324-0.187-0.588-0.644-0.587-1.016C372.032,163.544,372.298,163.395,372.621,163.582z"/>
			</g>
			<g>
				<path style="fill:#F5F5F5;" d="M374.332,164.57c0.326,0.188,0.588,0.642,0.587,1.016c-0.001,0.372-0.265,0.524-0.59,0.336
					c-0.326-0.188-0.588-0.644-0.587-1.016C373.743,164.532,374.007,164.382,374.332,164.57z"/>
			</g>
			<g>
				<path style="fill:#F5F5F5;" d="M376.043,165.558c0.326,0.188,0.588,0.642,0.587,1.016c-0.001,0.372-0.265,0.524-0.59,0.336
					c-0.326-0.188-0.588-0.644-0.587-1.016C375.454,165.52,375.718,165.37,376.043,165.558z"/>
			</g>
			<g>
				<path style="fill:#D63939;" d="M439.377,200.996c0.743,0.429,1.342,1.467,1.34,2.321l-0.006,2.059l-70.023-40.428l0.006-2.059
					c0.003-0.853,0.608-1.196,1.351-0.767L439.377,200.996z M374.328,165.922c0.326,0.188,0.589,0.035,0.59-0.336
					c0.001-0.374-0.261-0.828-0.587-1.016c-0.326-0.188-0.589-0.038-0.59,0.337C373.741,165.278,374.003,165.734,374.328,165.922
					 M376.04,166.91c0.326,0.188,0.589,0.035,0.59-0.336c0.001-0.374-0.261-0.828-0.587-1.016c-0.326-0.188-0.589-0.038-0.59,0.336
					C375.452,166.266,375.714,166.722,376.04,166.91 M372.617,164.934c0.326,0.188,0.589,0.035,0.591-0.336
					c0.001-0.374-0.261-0.828-0.587-1.016c-0.324-0.187-0.589-0.038-0.59,0.336C372.03,164.29,372.294,164.748,372.617,164.934"/>
			</g>
			<g style="opacity:0.2;">
				<path style="fill:#FFFFFF;" d="M439.377,200.996c0.743,0.429,1.342,1.467,1.34,2.321l-0.006,2.059l-70.023-40.428l0.006-2.059
					c0.003-0.853,0.608-1.196,1.351-0.767L439.377,200.996z M374.328,165.922c0.326,0.188,0.589,0.035,0.59-0.336
					c0.001-0.374-0.261-0.828-0.587-1.016c-0.326-0.188-0.589-0.038-0.59,0.337C373.741,165.278,374.003,165.734,374.328,165.922
					 M376.04,166.91c0.326,0.188,0.589,0.035,0.59-0.336c0.001-0.374-0.261-0.828-0.587-1.016c-0.326-0.188-0.589-0.038-0.59,0.336
					C375.452,166.266,375.714,166.722,376.04,166.91 M372.617,164.934c0.326,0.188,0.589,0.035,0.591-0.336
					c0.001-0.374-0.261-0.828-0.587-1.016c-0.324-0.187-0.589-0.038-0.59,0.336C372.03,164.29,372.294,164.748,372.617,164.934"/>
			</g>
			<path style="opacity:0.5;fill:#FFFFFF;" d="M441.057,199.934l-67.332-38.874c-0.419-0.242-0.789-0.231-1.037-0.029v-0.009
				l-1.589,1c0.244-0.135,0.578-0.113,0.946,0.1l67.332,38.874c0.743,0.429,1.342,1.467,1.34,2.321l-0.006,2.059l1.68-1.062
				l0.006-2.059C442.399,201.401,441.8,200.363,441.057,199.934z"/>
		</g>
		<g>
			<polygon style="fill:#D63939;" points="386.184,211.173 386.132,217.086 381.856,214.617 381.836,221.816 386.112,224.284
				381.836,221.816 381.908,208.704 			"/>
		</g>
		<g>
			<polygon style="fill:#D63939;" points="392.621,206.703 392.553,218.464 388.277,215.996 388.25,225.519 392.526,227.987
				388.25,225.519 388.345,204.235 			"/>
		</g>
		<g>
			<polygon style="fill:#D63939;" points="399.013,220.741 398.959,224.057 394.714,221.609 394.661,229.22 398.937,231.689
				394.661,229.22 394.737,218.273 			"/>
		</g>
		<g>
			<polygon style="fill:#D63939;" points="405.417,215.752 405.37,228.76 401.094,226.291 401.075,232.923 405.351,235.392
				401.075,232.923 401.141,213.284 			"/>
		</g>
		<g>
			<polygon style="fill:#D63939;" points="379.757,212.113 379.715,214.702 375.439,212.233 375.422,218.113 379.698,220.581
				375.422,218.113 375.481,209.644 			"/>
		</g>
		<g>
			<polygon style="fill:#D63939;" points="411.806,223.873 411.775,234.767 407.501,232.3 407.489,236.626 411.762,239.094
				407.489,236.626 407.532,221.406 			"/>
		</g>
		<g>
			<polygon style="fill:#D63939;" points="418.227,224.805 418.191,237.683 413.915,235.215 413.9,240.328 418.176,242.797
				413.9,240.328 413.951,222.337 			"/>
		</g>
		<g>
			<polygon style="fill:#D63939;" points="424.659,222.037 424.61,239.545 420.334,237.077 420.314,244.031 424.59,246.5
				420.314,244.031 420.384,219.568 			"/>
		</g>
		<g>
			<polygon style="fill:#D63939;" points="431.087,215.691 431.026,241.626 426.752,239.159 426.728,247.734 431.002,250.201
				426.728,247.734 426.813,213.224 			"/>
		</g>
		<g>
			<polygon style="fill:#D63939;" points="437.479,211.077 437.433,247.532 433.158,245.063 433.139,251.436 437.415,253.904
				433.139,251.436 433.203,208.608 			"/>
		</g>
		<g>
			<g>
				<polygon style="fill:#D63939;" points="398.959,224.057 398.937,231.689 394.661,229.22 394.714,221.609 				"/>
			</g>
			<g>
				<polygon style="fill:#D63939;" points="405.37,228.76 405.351,235.392 401.075,232.923 401.094,226.291 				"/>
			</g>
			<g>
				<polygon style="fill:#D63939;" points="379.715,214.702 379.698,220.581 375.422,218.113 375.439,212.233 				"/>
			</g>
			<g>
				<polygon style="fill:#D63939;" points="411.775,234.767 411.762,239.094 407.489,236.626 407.501,232.3 				"/>
			</g>
			<g>
				<polygon style="fill:#D63939;" points="424.61,239.545 424.59,246.5 420.314,244.031 420.334,237.077 				"/>
			</g>
			<g>
				<polygon style="fill:#D63939;" points="431.026,241.626 431.002,250.201 426.728,247.734 426.752,239.159 				"/>
			</g>
			<g>
				<polygon style="fill:#D63939;" points="386.132,217.086 386.112,224.284 381.836,221.816 381.856,214.617 				"/>
			</g>
			<g>
				<polygon style="fill:#D63939;" points="392.553,218.464 392.526,227.987 388.25,225.519 388.277,215.996 				"/>
			</g>
			<g>
				<polygon style="fill:#D63939;" points="418.191,237.683 418.176,242.797 413.9,240.328 413.915,235.215 				"/>
			</g>
			<g>
				<polygon style="fill:#D63939;" points="437.433,247.532 437.415,253.904 433.139,251.436 433.158,245.063 				"/>
			</g>
		</g>
		<g style="opacity:0.2;">
			<polygon points="398.959,226.868 398.937,231.689 394.661,229.22 394.714,224.42 			"/>
		</g>
		<g>
			<polygon style="opacity:0.2;" points="405.37,228.76 405.351,235.392 401.075,232.923 401.094,226.291 			"/>
		</g>
		<g>
			<polygon style="opacity:0.2;" points="379.715,216.989 379.698,220.581 375.422,218.113 375.439,214.52 			"/>
		</g>
		<g>
			<polygon style="opacity:0.2;" points="411.775,234.767 411.762,239.094 407.489,236.626 407.501,232.3 			"/>
		</g>
		<g>
			<polygon style="opacity:0.2;" points="424.61,232.491 424.59,246.5 420.314,244.031 420.334,230.022 			"/>
		</g>
		<g>
			<polygon style="opacity:0.2;" points="431.026,227.883 431.002,250.201 426.728,247.734 426.752,225.415 			"/>
		</g>
		<g>
			<polygon style="opacity:0.2;" points="386.132,217.086 386.112,224.284 381.836,221.816 381.856,214.617 			"/>
		</g>
		<g>
			<polygon style="opacity:0.2;" points="392.553,218.464 392.526,227.987 388.25,225.519 388.277,215.996 			"/>
		</g>
		<g>
			<polygon style="opacity:0.2;" points="418.191,237.683 418.176,242.797 413.9,240.328 413.915,235.215 			"/>
		</g>
		<g>
			<polygon style="opacity:0.2;" points="437.433,222.129 437.415,253.904 433.139,251.436 433.158,219.66 			"/>
		</g>
		<g>
			<g>
				<polygon style="fill:#D63939;" points="392.634,201.871 392.624,205.408 388.348,202.939 388.358,199.402 				"/>
			</g>
			<g>
				<polygon style="fill:#D63939;" points="379.765,209.129 379.76,210.82 375.485,208.351 375.489,206.661 				"/>
			</g>
			<g>
				<polygon style="fill:#D63939;" points="411.812,221.679 411.809,222.577 407.536,220.11 407.538,219.212 				"/>
			</g>
			<g>
				<polygon style="fill:#D63939;" points="405.427,212.387 405.421,214.457 401.145,211.988 401.151,209.918 				"/>
			</g>
			<g>
				<polygon style="fill:#D63939;" points="399.024,216.867 399.017,219.445 394.741,216.977 394.749,214.398 				"/>
			</g>
			<g>
				<polygon style="fill:#D63939;" points="386.194,207.519 386.187,209.877 381.911,207.408 381.918,205.05 				"/>
			</g>
			<g>
				<polygon style="fill:#D63939;" points="424.669,218.505 424.663,220.741 420.387,218.273 420.394,216.037 				"/>
			</g>
			<g>
				<polygon style="fill:#D63939;" points="437.488,207.844 437.483,209.784 433.207,207.315 433.212,205.375 				"/>
			</g>
			<g>
				<polygon style="fill:#D63939;" points="418.235,222.211 418.231,223.51 413.955,221.041 413.959,219.743 				"/>
			</g>
			<g>
				<polygon style="fill:#D63939;" points="431.099,211.342 431.091,214.398 426.817,211.931 426.826,208.874 				"/>
			</g>
		</g>
		<g style="opacity:0.8;">
			<g>
				<polygon style="fill:#FFFFFF;" points="392.634,201.871 392.624,205.408 388.348,202.939 388.358,199.402 				"/>
			</g>
			<g>
				<polygon style="fill:#FFFFFF;" points="379.765,209.129 379.76,210.82 375.485,208.351 375.489,206.661 				"/>
			</g>
			<g>
				<polygon style="fill:#FFFFFF;" points="411.812,221.679 411.809,222.577 407.536,220.11 407.538,219.212 				"/>
			</g>
			<g>
				<polygon style="fill:#FFFFFF;" points="405.427,212.387 405.421,214.457 401.145,211.988 401.151,209.918 				"/>
			</g>
			<g>
				<polygon style="fill:#FFFFFF;" points="399.024,216.867 399.017,219.445 394.741,216.977 394.749,214.398 				"/>
			</g>
			<g>
				<polygon style="fill:#FFFFFF;" points="386.194,207.519 386.187,209.877 381.911,207.408 381.918,205.05 				"/>
			</g>
			<g>
				<polygon style="fill:#FFFFFF;" points="424.669,218.505 424.663,220.741 420.387,218.273 420.394,216.037 				"/>
			</g>
			<g>
				<polygon style="fill:#FFFFFF;" points="437.488,207.844 437.483,209.784 433.207,207.315 433.212,205.375 				"/>
			</g>
			<g>
				<polygon style="fill:#FFFFFF;" points="418.235,222.211 418.231,223.51 413.955,221.041 413.959,219.743 				"/>
			</g>
			<g>
				<polygon style="fill:#FFFFFF;" points="431.099,211.342 431.091,214.398 426.817,211.931 426.826,208.874 				"/>
			</g>
		</g>
	</g>
</g>
<g id="Chart_1">
	<g>
		<g>
			<g>
				<polygon style="fill:#D63939;" points="263.239,270.371 250.742,277.586 250.742,349.98 263.239,357.195 275.735,349.98
					275.735,277.586 				"/>
				<polygon style="opacity:0;" points="250.742,277.586 263.239,270.371 275.735,277.586 263.239,284.8 				"/>
				<polygon style="opacity:0.1;" points="263.239,284.8 263.239,357.195 250.742,349.98 250.742,277.586 				"/>
				<polygon style="opacity:0.2;" points="263.239,284.8 263.239,357.195 275.735,349.98 275.735,277.586 				"/>
			</g>
			<g>
				<polygon style="fill:#D63939;" points="244.992,297.632 232.496,304.846 232.496,361.12 244.992,368.335 257.488,361.12
					257.488,304.846 				"/>
				<polygon style="opacity:0.5;fill:#FFFFFF;" points="232.496,304.846 244.992,297.632 257.488,304.846 244.992,312.061 				"/>
				<polygon style="opacity:0.4;fill:#FFFFFF;" points="244.992,312.061 244.992,368.335 232.496,361.12 232.496,304.846 				"/>
				<polygon style="opacity:0.3;fill:#FFFFFF;" points="244.992,312.061 244.992,368.335 257.488,361.12 257.488,304.846 				"/>
			</g>
			<g>
				<polygon style="fill:#D63939;" points="225.947,338.03 213.451,345.245 213.451,372.029 225.947,379.243 238.443,372.029
					238.443,345.245 				"/>
				<polygon style="opacity:0;" points="213.451,345.245 225.947,338.03 238.443,345.245 225.947,352.46 				"/>
				<polygon style="opacity:0.1;" points="225.947,352.46 225.947,379.243 213.451,372.029 213.451,345.245 				"/>
				<polygon style="opacity:0.2;" points="225.947,352.46 225.947,379.243 238.443,372.029 238.443,345.245 				"/>
			</g>
			<g>
				<polygon style="fill:#D63939;" points="206.901,330.816 194.405,338.03 194.405,382.938 206.901,390.152 219.397,382.938
					219.397,338.03 				"/>
				<polygon style="opacity:0.5;fill:#FFFFFF;" points="194.405,338.03 206.901,330.816 219.397,338.03 206.901,345.245 				"/>
				<polygon style="opacity:0.4;fill:#FFFFFF;" points="206.901,345.245 206.901,390.152 194.405,382.938 194.405,338.03 				"/>
				<polygon style="opacity:0.3;fill:#FFFFFF;" points="206.901,345.245 206.901,390.152 219.397,382.938 219.397,338.03 				"/>
			</g>
		</g>
		<g>
			<path style="fill:#455A64;" d="M280.096,311.979l3.043,12.992l-5.123-0.099c-3.975,10.033-20.366,45.951-58.674,68.068
				c11.255-6.792,22.424-17.054,31.982-29.392c9.016-11.643,16.582-25.108,21.793-38.758l-5.206-0.095L280.096,311.979z"/>
		</g>
	</g>
</g>
<g id="Speech_bubble">
	<g>
		<path style="fill:none;" d="M340.559,98.334c0.001,0.001,0.002,0.002,0.003,0.003C340.561,98.336,340.56,98.335,340.559,98.334z"
			/>
		<path style="fill:#D63939;" d="M346.557,97.247c-0.413-0.734-1.013-1.361-1.769-1.794l-24.331-13.959
			c-2.131-1.223-7.176,0.435-7.176,3.861v17.394c0,1.704,0.913,3.278,2.393,4.123l18.772,10.727v0l-3.242-1.853l1.557,4.414
			c0.05,0.143,0.197,0.195,0.323,0.159l-0.006,0.018c0.275-0.142,1.499-0.798,2.195-1.259c0.004-0.002,0.008-0.006,0.012-0.008
			c0.015-0.01,0.032-0.021,0.046-0.03l-0.003-0.009c0.021-0.018,0.046-0.03,0.062-0.056l0.382-0.619l4.228,2.416
			c3.564,2.037,7.173-0.675,7.173-3.862V99.572C347.174,98.742,346.951,97.946,346.557,97.247z"/>
		<path style="opacity:0.2;fill:#FFFFFF;" d="M335.39,118.976c-0.016,0.026-0.041,0.038-0.062,0.056l0.003,0.009
			c-0.014,0.009-0.032,0.02-0.046,0.03c-0.004,0.002-0.007,0.006-0.012,0.008c-0.696,0.461-1.92,1.117-2.195,1.259l0.007-0.018
			c0.059-0.017,0.115-0.047,0.153-0.108l1.508-2.442l-0.298-0.171l0,0l1.326,0.758L335.39,118.976z"/>
		<path style="opacity:0.4;fill:#FFFFFF;" d="M341.834,99.93c-0.308-0.61-0.733-1.159-1.272-1.593
			c-0.001-0.001-0.002-0.002-0.003-0.003c-0.18-0.145-0.372-0.277-0.576-0.394l-24.331-13.959c-1.055-0.605-2.371,0.156-2.371,1.373
			c0-3.426,5.044-5.083,7.176-3.861l24.331,13.959c0.756,0.434,1.357,1.061,1.769,1.794L341.834,99.93z"/>
		<path style="opacity:0.2;fill:#FFFFFF;" d="M342.369,119.398v-13.979c0-0.19-0.013-3.737-0.037-3.921
			c-0.073-0.552-0.25-1.079-0.497-1.568l4.723-2.683c0.393,0.699,0.617,1.495,0.617,2.325v17.339c0,3.187-3.609,5.899-7.173,3.862
			C341.056,121.376,342.369,120.614,342.369,119.398z"/>
		<g>
			<polygon style="fill:#FFFFFF;" points="326.983,95.212 333.078,106.941 329.627,104.949 329.611,110.679 324.276,107.6
				324.293,101.869 320.842,99.877 			"/>
		</g>
	</g>
</g>
<g id="Character_2_1_">
	<g>
		<g>
			<path style="fill:#FFA8A7;" d="M316.281,168.402c-3.081,0.397-5.678,2.489-6.723,5.414l-7.825,21.9l-17.21-10.54
				c-1.045-0.775-1.84-1.841-2.284-3.064l-0.797-2.189c-0.546-1.501-1.534-2.797-2.813-3.755c-3.261-2.445-5.154-4.955-5.154-4.955
				c-0.986,1.092-1.093,2.734-0.22,3.918c0.932,1.265,2.055,2.357,2.055,2.357l-1.851,0.129c-1.336,0.093-2.669-0.233-3.81-0.933
				l-4.696-2.88c-0.591-0.362-1.35,0.06-1.359,0.753c-0.029,2.345,0.66,4.862,1.357,6.796c0.755,2.094,2.404,3.742,4.483,4.537
				c2.493,0.954,4.92,1.783,6.304,2.244c0.794,0.264,1.535,0.651,2.206,1.151l1.388,1.033l18.669,18.109
				c4.039,3.315,10.111,2.017,12.442-2.659l6.092-12.221l3.57-25.639L316.281,168.402z"/>
			<polygon style="opacity:0.2;" points="301.734,195.716 306.763,199.485 303.129,191.811 			"/>
		</g>
		<path style="fill:#455A64;" d="M320.105,167.909l-3.958,0.407c-3.589,0.369-6.65,2.76-7.876,6.152l-5.691,15.561
			c2.833,6.917,12.705,7.725,12.705,7.725l3.378-5.943L320.105,167.909z"/>
		<path style="opacity:0.4;fill:#FFFFFF;" d="M320.105,167.909l-3.958,0.407c-3.589,0.369-6.65,2.76-7.876,6.152l-5.691,15.561
			c2.833,6.917,12.705,7.725,12.705,7.725l3.378-5.943L320.105,167.909z"/>
		<g>
			<path style="fill:#455A64;" d="M303.17,334.716c1.565,1.642,3.935,2.338,6.203,2.28c2.268-0.058,4.463-0.792,6.561-1.655
				c2.098-0.862,4.732-3.277,7-3.232c2.095,0.042,4.57-0.228,6.636-0.454c0.201-4.579-0.944-8.986-0.944-8.986l-10.591-0.28
				c-2.859,3.916-8.419,7.174-12.626,8.397c-1.351,0.392-2.35,1.49-2.613,2.785c0.004,0.022,0.003,0.044,0.008,0.067
				C302.953,334.315,303.17,334.716,303.17,334.716z"/>
			<path style="fill:#263238;" d="M322.935,332.109c-2.268-0.045-4.902,2.37-7,3.232c-2.098,0.862-4.294,1.597-6.561,1.655
				c-2.268,0.058-4.638-0.638-6.203-2.28c0,0-0.217-0.401-0.366-1.078c-0.005-0.023-0.004-0.045-0.008-0.067
				c-0.092,0.453-0.098,0.93,0.008,1.411c0.149,0.678,0.366,1.079,0.366,1.079c1.565,1.642,3.935,2.338,6.203,2.28
				c2.268-0.058,4.463-0.792,6.561-1.655s4.732-3.277,7-3.232c2.333,0.047,4.347-0.143,6.532-0.378
				c0.052-0.472,0.083-0.947,0.104-1.421C327.505,331.881,325.03,332.151,322.935,332.109z"/>
		</g>
		<g>
			<path style="fill:#263238;" d="M352.833,335.708c-0.009,1.081-0.085,2.158-0.318,3.212c-0.408,1.845-1.358,3.646-2.937,4.684
				c-1.361,0.895-3.041,1.143-4.666,1.242c-1.439,0.087-2.92,0.068-4.269-0.44c-1.025-0.386-1.964-1.103-2.498-2.04
				c0.004,0.018,0.005,0.037,0.009,0.055c0.322,1.405,1.527,2.485,2.876,2.993c1.349,0.509,2.83,0.528,4.269,0.441
				c1.626-0.099,3.306-0.347,4.666-1.242c1.579-1.038,2.529-2.839,2.937-4.684c0.233-1.054,0.31-2.131,0.318-3.212
				c0.012-1.494,0.633-2.905,1.722-3.927c0.265-0.249,0.519-0.506,0.751-0.773c0.336-0.385,0.497-0.891,0.459-1.401
				c-0.015-0.2-0.036-0.395-0.061-0.588c-0.388,0.455-1.305,1.538-1.535,1.754C353.466,332.804,352.845,334.215,352.833,335.708z"/>
			<path style="fill:#455A64;" d="M344.732,324.518c0.409,2.18,0.012,4.457-0.824,6.512c-0.836,2.054-2.095,3.91-3.447,5.668
				c-0.649,0.844-1.328,1.679-1.804,2.632c-0.468,0.936-0.728,2.014-0.512,3.037c0.535,0.938,1.474,1.654,2.498,2.04
				c1.349,0.508,2.83,0.528,4.269,0.44c1.626-0.098,3.306-0.347,4.666-1.242c1.579-1.039,2.529-2.839,2.937-4.684
				c0.233-1.054,0.309-2.131,0.318-3.212c0.012-1.494,0.633-2.905,1.722-3.927c0.231-0.216,1.147-1.299,1.535-1.754
				c-0.348-2.66-1.585-4.544-1.585-4.544L344.732,324.518z"/>
		</g>
		<g>
			<path style="fill:#263238;" d="M313.448,219.916l0.883,60.406l2.85,42.28c7.216,4.562,12.442,0.83,12.442,0.83
				c2.737-20.031,3.111-32.349,1.617-40.685l1.369-32.597l4.106,33.842l6.906,41.483c7.401,4.8,12.627,0,12.627,0
				c0-15.356,1.368-32.525-2.862-43.598c2.986-34.215-1.991-61.338-1.991-61.338L313.448,219.916z"/>
			<path style="opacity:0.3;" d="M331.098,237.702l1.51,12.447l-0.641,15.268l-2.781-25.096c-6.439-2.52-7.278-6.065-7.278-6.065
				C326.108,237.334,331.098,237.702,331.098,237.702z"/>
		</g>
		<g>
			<path style="fill:#455A64;" d="M327.166,167.163l-7.061,0.746c-5.786,5.101-8.772,15.801-7.528,27.621
				c1.244,11.82,0.871,24.386,0.871,24.386c15.677,11.446,35.459,3.11,37.947,0.622l-1.164-14.492
				c-0.131-1.631,0.146-3.268,0.793-4.771c1.48-3.439,4.121-10.206,4.476-15.449c0.498-7.341-2.862-13.499-2.862-13.499
				l-10.264-4.479L327.166,167.163z"/>
		</g>
		<g style="opacity:0.5;">
			<path style="fill:#FFFFFF;" d="M327.166,167.163l-7.061,0.746c-5.786,5.101-8.772,15.801-7.528,27.621
				c1.244,11.82,0.871,24.386,0.871,24.386c15.677,11.446,35.459,3.11,37.947,0.622l-1.164-14.492
				c-0.131-1.631,0.146-3.268,0.793-4.771c1.48-3.439,4.121-10.206,4.476-15.449c0.498-7.341-2.862-13.499-2.862-13.499
				l-10.264-4.479L327.166,167.163z"/>
		</g>
		<g>
			<g>
				<path style="fill:#455A64;" d="M325.204,177.458c-5.909,13.592-5.815,27.589-5.815,27.589l2.908,6.252l4.557-5.972
					c-0.653-13.53,0.547-27.465,0.547-27.465L325.204,177.458z"/>
				<path style="fill:#455A64;" d="M324.957,172.326c-0.218,2.737,0.247,5.132,0.247,5.132c0.779,0.529,2.197,0.404,2.197,0.404
					c1.879-1.462,3.528-4.261,3.528-4.261l-3.528-1.275H324.957z"/>
			</g>
			<g>
				<path style="fill:#455A64;" d="M327.401,172.326c3.041,1.12,5.745,6.532,5.745,6.532c7.985-6.781,9.229-11.011,9.229-11.011
					c-2.053-2.924-3.869-4.086-3.869-4.086L327.401,172.326z"/>
				<path style="fill:#455A64;" d="M327.401,172.326c-2.32,0.062-4.373,3.297-4.373,3.297c-0.373-5.661,4.373-10.016,4.373-10.016
					V172.326z"/>
			</g>
			<g style="opacity:0.35;">
				<path style="fill:#FFFFFF;" d="M327.401,172.326c3.041,1.12,5.745,6.532,5.745,6.532c7.985-6.781,9.229-11.011,9.229-11.011
					c-2.053-2.924-3.869-4.086-3.869-4.086L327.401,172.326z"/>
				<path style="fill:#FFFFFF;" d="M327.401,172.326c-2.32,0.062-4.373,3.297-4.373,3.297c-0.373-5.661,4.373-10.016,4.373-10.016
					V172.326z"/>
			</g>
			<g>
				<path style="fill:#263238;" d="M342.379,140.933c-1.547-1.956-4.025-2.166-4.025-2.166l-21.016,1.979
					c-2.423,5.212-0.488,8.657-0.488,8.657c-0.327,7.95-0.599,13.003,2.846,14.677c1.876,0.911,4.733,1.301,7.675,1.08
					c2.46-0.185,4.98-0.795,7.04-1.898l0.112-0.06c1.537-0.823,2.629-2.295,3.012-4.015c0.346-1.55,0.605-3.118,0.723-4.703
					c0.067-0.898,0.103-1.803,0.294-2.682c0.191-0.879,0.552-1.744,1.18-2.38c0.628-0.636,1.553-1.01,2.421-0.821
					c0.153,0.033,0.293,0.101,0.434,0.165C343.184,145.234,343.36,142.173,342.379,140.933z"/>
				<path style="fill:#FFA8A7;" d="M334.683,141.541c-0.461,1.443-0.18,3.023,0.276,4.468c0.456,1.445,1.086,2.843,1.335,4.34
					c0.246,1.478,0.097,3.047-0.577,4.38c-0.675,1.333-1.906,2.401-3.35,2.713c-2.257,0.487-4.463-0.851-6.728-1.296
					c-2.103-0.413-4.432,0.035-6.326,1.135c-0.714,0.415-1.604-0.053-1.653-0.887c-0.269-4.576-0.265-11.745,0.402-15.113
					L334.683,141.541z"/>
				<polygon style="fill:#FFA8A7;" points="336.825,161.981 336.826,161.979 336.817,161.984 				"/>
				<path style="fill:#37474F;" d="M338.659,156.772c0,0-0.042,1.856-0.09,4.072c0.858-0.714,1.439-1.584,1.958-3.08
					C339.801,157.671,339.067,157.313,338.659,156.772z"/>
				<g>
					<polygon style="fill:#F28F8F;" points="325.012,149.654 321.179,154.365 324.696,155.626 					"/>
					<path style="fill:#F28F8F;" d="M327.913,157.966c-0.987,0.308-1.973,0.616-2.96,0.924c0.303,0.698,1.27,1.133,1.995,0.931
						C327.672,159.619,328.003,158.723,327.913,157.966z"/>
					<path style="opacity:0.3;" d="M327.913,157.966c-0.987,0.308-1.973,0.616-2.96,0.924c0.303,0.698,1.27,1.133,1.995,0.931
						C327.672,159.619,328.003,158.723,327.913,157.966z"/>
					<path style="fill:#F28F8F;" d="M325.978,159.762c0.322,0.112,0.666,0.144,0.97,0.059c0.569-0.158,0.891-0.745,0.962-1.356
						c-0.391-0.06-0.802,0.008-1.143,0.212C326.373,158.911,326.092,159.315,325.978,159.762z"/>
					<path style="fill:#263238;" d="M330.226,150.687c-0.031,0.589-0.527,1.041-1.108,1.01c-0.581-0.032-1.026-0.535-0.995-1.124
						c0.031-0.589,0.527-1.041,1.108-1.01C329.812,149.595,330.257,150.098,330.226,150.687z"/>
					<path style="fill:#263238;" d="M321.418,149.861c-0.031,0.589-0.527,1.041-1.108,1.009c-0.581-0.032-1.026-0.535-0.995-1.124
						c0.031-0.589,0.527-1.041,1.108-1.01C321.004,148.768,321.449,149.271,321.418,149.861z"/>
					<path style="fill:#263238;" d="M320.62,145.559c-0.806,0.503-1.611,1.006-2.417,1.508c-0.201-0.574,0.06-1.29,0.544-1.649
						C319.231,145.058,320.142,145.191,320.62,145.559z"/>
					<path style="fill:#263238;" d="M329.629,145.921c0.748,0.588,1.496,1.175,2.244,1.762c0.26-0.548,0.077-1.289-0.367-1.699
						C331.063,145.575,330.143,145.608,329.629,145.921z"/>
				</g>
				<g>
					<path style="fill:#FFA8A7;" d="M344.04,150.31c-0.286-0.671-0.806-1.249-1.455-1.545c-0.141-0.064-0.281-0.132-0.434-0.165
						c-0.867-0.189-1.793,0.185-2.421,0.821c-0.628,0.636-0.988,1.501-1.18,2.38c-0.191,0.879-0.227,1.784-0.294,2.682
						c-0.12,1.624-0.39,3.23-0.748,4.817c-0.38,1.682-1.49,3.101-2.995,3.906l-0.104,0.055c-2.059,1.103-4.579,1.713-7.04,1.898
						l0.011,2.119v5.047l9.934-5.879c0.714-0.423,1.16-1.188,1.177-2.026c0.024-1.147,0.051-2.41,0.077-3.576
						c0.048-2.216,0.09-4.072,0.09-4.072c0.408,0.541,1.142,0.899,1.868,0.992c0.34,0.044,0.679,0.035,0.981-0.05
						c0.949-0.267,1.721-1.013,2.184-1.895c0.463-0.882,0.645-1.891,0.699-2.889C344.441,152.042,344.388,151.126,344.04,150.31z"/>
					<path style="opacity:0.2;" d="M335.828,163.117c0.582-0.758,1.007-1.65,1.226-2.584c-0.548,1.129-1.422,2.076-2.539,2.673
						c-0.035,0.019-0.07,0.037-0.104,0.055c-2.059,1.103-4.579,1.713-7.04,1.898l0.01,1.828c1.415-0.152,2.822-0.4,4.16-0.886
						C333.194,165.501,334.748,164.523,335.828,163.117z"/>
				</g>
				<path style="fill:#263238;" d="M339.664,139.362c-2.47,2.197-6.396,3.201-9.676,3.618c-3.28,0.417-6.626,0.017-9.821-0.834
					c-1.334-0.355-2.747-0.862-3.514-2.01c-0.903-1.353-0.944-3.219-0.3-4.712c0.644-1.493,2.065-2.625,3.664-2.919
					c3.109-0.572,6.09,1.844,9.245,1.66c1.37-0.08,2.656-0.646,3.963-1.064c1.307-0.418,2.755-0.686,4.03-0.179
					c1.094,0.435,1.925,1.419,2.293,2.537C339.917,136.576,340.029,138.243,339.664,139.362z"/>
			</g>
		</g>
		<g>
			<path style="fill:#D63939;" d="M307.182,220.242l-7.212-29.473c-0.228-0.921-0.821-1.709-1.642-2.183l-17.997-10.365
				c-0.112-0.065-0.228-0.088-0.341-0.089l0.001-0.007c-0.959-0.108-1.522,0.821-1.633,1.147l0.004,0
				c-0.063,0.135-0.089,0.291-0.047,0.459l7.212,29.473c0.228,0.921,0.821,1.709,1.642,2.183l17.997,10.365
				c0.156,0.09,0.32,0.106,0.472,0.078l-0.001,0.006c0.605-0.051,1.281-0.623,1.502-1.14c0.009-0.019,0.019-0.037,0.026-0.056
				c0.002-0.006,0.006-0.012,0.009-0.018l-0.004,0C307.204,220.506,307.215,220.378,307.182,220.242z"/>
			<path style="opacity:0.3;" d="M306.191,220.981l-7.212-29.473c-0.228-0.921-0.821-1.709-1.642-2.183L279.34,178.96
				c-0.383-0.221-0.817-0.031-0.979,0.313c-0.063,0.135-0.089,0.291-0.047,0.459l7.212,29.473c0.228,0.921,0.821,1.709,1.642,2.183
				l17.997,10.365c0.156,0.09,0.32,0.106,0.472,0.078C306.004,221.761,306.295,221.403,306.191,220.981z"/>
		</g>
		<g>
			<path style="fill:#FFA8A7;" d="M349.927,171.122c-4.041,4.106-8.716,17.633-10.687,23.753l0,0l-4.351,12.193
				c-6.266,0.322-6.906,1.179-12.059,2.086c-1.64,0.289-5.383,1.086-7.86,1.368c-0.476,0.01-0.937,0.007-1.365-0.029
				c-2.093-0.284-3.728-2.42-9.6-3.088l0.935,3.779c-3.747,0.756-8.281-4.47-10.2-3.627c-1.918,0.843,0.785,2.79,0.785,2.79
				c-0.698,2.442,1.55,3.97,1.55,3.97c0.019,2.367,2.177,4.363,7.635,5.652c2.878,0.581,5.984-0.552,8.646-0.552
				c0.338,0,1.096-0.01,2.15-0.028l0,0l24.01,0.526c2.84,0,5.436-1.599,6.711-4.137c2.051-4.081,4.979-9.969,5.746-11.826
				C362.437,178.927,361.569,173.605,349.927,171.122z"/>
			<path style="opacity:0.2;" d="M334.888,207.068c3.691-0.098,7.484,0.883,7.484,0.883c-3.074-3.4-6.198-4.488-6.198-4.488
				L334.888,207.068z"/>
			<path style="fill:#455A64;" d="M349.927,171.122c-8.889,9.199-12.873,26.865-12.873,26.865
				c7.776,8.417,16.308,4.695,16.308,4.695s4.361-9.111,5.914-16.778C361.413,174.237,357.023,172.506,349.927,171.122z"/>
			<path style="opacity:0.4;fill:#FFFFFF;" d="M349.927,171.122c-8.889,9.199-12.873,26.865-12.873,26.865
				c7.776,8.417,16.308,4.695,16.308,4.695s4.361-9.111,5.914-16.778C361.413,174.237,357.023,172.506,349.927,171.122z"/>
			<polygon style="fill:#37474F;" points="317.262,214.091 314.075,214.091 314.075,210.277 317.262,209.883 			"/>
			<polygon style="fill:#37474F;" points="317.262,219.872 314.075,219.872 314.075,216.057 317.262,215.663 			"/>
			<g>
				<path style="fill:#263238;" d="M318.954,216.03c0-1.4-1.471-2.534-3.286-2.534c-1.814,0-3.285,1.135-3.285,2.534v0.824h0.193
					c0.445,0.993,1.654,1.71,3.092,1.71c1.438,0,2.647-0.717,3.093-1.71h0.193V216.03z"/>
				<path style="fill:#455A64;" d="M318.954,216.855c0,1.4-1.471,2.534-3.286,2.534c-1.814,0-3.285-1.135-3.285-2.534
					c0-1.4,1.471-2.534,3.285-2.534C317.483,214.32,318.954,215.455,318.954,216.855z"/>
				<g>
					<path style="fill:#263238;" d="M315.668,218.364c-1.247,0-2.26-0.738-2.372-1.678c-0.007,0.056-0.022,0.111-0.022,0.169
						c0,1.02,1.072,1.847,2.394,1.847s2.394-0.827,2.394-1.847c0-0.058-0.015-0.113-0.022-0.169
						C317.928,217.625,316.916,218.364,315.668,218.364z"/>
					<path style="fill:#37474F;" d="M315.668,218.364c1.247,0,2.26-0.738,2.372-1.678c-0.112-0.939-1.125-1.678-2.372-1.678
						c-1.247,0-2.26,0.738-2.372,1.678C313.409,217.625,314.421,218.364,315.668,218.364z"/>
				</g>
			</g>
		</g>
	</g>
</g>
<g id="Character_1">
	<g>
		<path style="fill:#455A64;" d="M154.875,269.82c-5.43-4.341-9.931,3.804-13.218,12.878c-1.995,5.507-4.042,10.882-5.343,14.257
			c-0.852,2.208-0.501,4.693,0.922,6.584l9.677,12.862l4.318-9.339l-5.359-8.126l5.453-9.971L154.875,269.82z"/>
		<path style="opacity:0.2;" d="M147.318,296.293l4.008-7.328l1.871-10.095l-6.23,3.696
			C145.224,286.952,145.349,292.034,147.318,296.293z"/>
		<path style="opacity:0.2;" d="M144.371,313.023l2.542,3.378l4.318-9.339l-2.982-4.522c-0.496,1.993-1.457,3.866-2.314,5.748
			C145.247,309.799,144.625,311.395,144.371,313.023z"/>
		<path style="fill:#37474F;" d="M168.879,434.598c0.229-0.81,0.417-1.631,0.585-2.457c1.033,1.708,2.457,3.181,4.152,4.237
			c1.451,0.904,3.072,1.505,4.716,1.973c2.912,0.828,5.938,1.251,8.964,1.256c1.006,0.001,2.113-0.085,2.829-0.791
			c0.542-0.535,0.747-1.387,0.506-2.11c-0.107-0.321-0.308-0.6-0.555-0.831c0.336,0.081,0.671,0.169,1.008,0.24
			c1.179,0.251,2.404,0.458,3.419,1.107c1.015,0.65,1.771,1.886,1.449,3.047c-0.292,1.056-1.338,1.705-2.339,2.151
			c-3.816,1.7-8.264,1.933-12.236,0.641c-2.477-0.805-4.863-2.193-7.467-2.121c-1.486,0.041-3.117,0.532-4.365-0.276
			c-0.919-0.596-1.328-1.763-1.321-2.858C168.23,436.711,168.582,435.651,168.879,434.598z"/>
		<path style="fill:#37474F;" d="M148.884,418.479c0.359,0.679,0.832,1.294,1.444,1.757c1.027,0.778,2.407,1.116,3.65,0.777
			c1.226-0.334,2.192-1.254,3.102-2.141c1.085-1.056,2.169-2.113,3.254-3.169c0.851-0.829,1.767-1.818,1.691-3.003
			c-0.08-1.233-1.277-2.156-2.497-2.352c-0.726-0.116-1.456-0.027-2.179,0.131c0.105-0.08,0.212-0.16,0.323-0.239
			c0.833-0.587,1.727-1.088,2.663-1.49c1.018-0.437,2.167-0.76,3.223-0.426c1.318,0.417,2.162,1.818,2.216,3.2
			s-0.561,2.717-1.398,3.817c-0.837,1.1-1.894,2.01-2.888,2.971c-1.344,1.299-2.584,2.704-3.707,4.198
			c-0.832,1.107-1.607,2.272-2.627,3.208c-1.02,0.936-2.343,1.637-3.726,1.578c-1.154-0.049-2.316-0.703-2.772-1.764
			c-0.291-0.676-0.281-1.438-0.25-2.173C148.474,421.725,148.654,420.099,148.884,418.479z"/>
		<path style="fill:#FFA8A7;" d="M190.632,436.705c-0.107-0.321-0.308-0.6-0.555-0.831c-4.381-1.061-8.696-2.94-12.41-5.456
			c0.583-13.555,5.502-48.772,5.502-48.772s1.715-30.071-0.572-58.937l-37.232-3.715c-0.95,3.387-3.351,16.147,3.889,49.728
			c-6.049,16.862-1.81,26.293,0,47.034c0,0,0.025,0.016,0.062,0.037c-0.034,0.159-0.069,0.318-0.098,0.476
			c-0.138,0.732-0.229,1.472-0.334,2.209c0.359,0.679,0.832,1.294,1.444,1.757c1.027,0.778,2.407,1.116,3.65,0.777
			c1.226-0.334,2.192-1.254,3.102-2.14c1.085-1.056,2.169-2.113,3.254-3.169c0.851-0.829,1.767-1.818,1.691-3.003
			c-0.08-1.233-1.277-2.156-2.497-2.352c-0.726-0.116-1.456-0.027-2.179,0.131c-0.353,0.268-0.68,0.527-1.013,0.766l6.257-37.808
			l1.465-27.15l3.68,33.828c-5.144,14.68,2.408,22.822,2.408,46.291c-0.06,1.926-0.295,3.846-0.679,5.734
			c1.033,1.708,2.457,3.181,4.152,4.237c1.451,0.904,3.072,1.506,4.716,1.973c2.912,0.828,5.938,1.251,8.964,1.256
			c1.006,0.001,2.113-0.085,2.829-0.791C190.668,438.28,190.872,437.428,190.632,436.705z"/>
		<path style="opacity:0.2;" d="M190.632,436.705c-0.107-0.321-0.308-0.6-0.555-0.831c-4.381-1.061-8.696-2.94-12.41-5.456
			c0.583-13.555,5.502-48.772,5.502-48.772s1.715-30.071-0.572-58.937l-37.232-3.715c-0.95,3.387-3.351,16.147,3.889,49.728
			c-6.049,16.862-1.81,26.293,0,47.034c0,0,0.025,0.016,0.062,0.037c-0.034,0.159-0.069,0.318-0.098,0.476
			c-0.138,0.732-0.229,1.472-0.334,2.209c0.359,0.679,0.832,1.294,1.444,1.757c1.027,0.778,2.407,1.116,3.65,0.777
			c1.226-0.334,2.192-1.254,3.102-2.14c1.085-1.056,2.169-2.113,3.254-3.169c0.851-0.829,1.767-1.818,1.691-3.003
			c-0.08-1.233-1.277-2.156-2.497-2.352c-0.726-0.116-1.456-0.027-2.179,0.131c-0.353,0.268-0.68,0.527-1.013,0.766l6.257-37.808
			l1.465-27.15l3.68,33.828c-5.144,14.68,2.408,22.822,2.408,46.291c-0.06,1.926-0.295,3.846-0.679,5.734
			c1.033,1.708,2.457,3.181,4.152,4.237c1.451,0.904,3.072,1.506,4.716,1.973c2.912,0.828,5.938,1.251,8.964,1.256
			c1.006,0.001,2.113-0.085,2.829-0.791C190.668,438.28,190.872,437.428,190.632,436.705z"/>
		<path style="opacity:0.2;" d="M183.735,363.348c0.15-11.166,0.017-26.053-1.138-40.639l-37.232-3.715
			c-0.894,3.186-3.068,14.667,2.699,43.957c4.279,3.179,9.48,5.089,14.799,5.451l1.193-22.115l2.438,22.409
			C172.634,369.088,178.881,367.121,183.735,363.348z"/>
		<path style="fill:#D63939;" d="M182.624,321.537l-37.258-2.543c-3.617,10.256-2.883,22.506,0,40.131
			c4.508,5.583,21.182,10.064,31.067,4.589l1.176-12.177l1.349,12.504c2.995-1.112,5.667-2.083,6.284-6.488
			C185.058,336.875,182.624,321.537,182.624,321.537z"/>
		<path style="fill:#F28F8F;" d="M176.668,250.819c0.866,1.623,1.733,3.245,2.599,4.868c-0.771,0.522-1.542,1.045-2.313,1.567
			C176.822,255.173,176.802,252.899,176.668,250.819z"/>
		<path style="opacity:0.3;" d="M176.668,250.819c0.866,1.623,1.733,3.245,2.599,4.868c-0.771,0.522-1.542,1.045-2.313,1.567
			C176.822,255.173,176.802,252.899,176.668,250.819z"/>
		<path style="fill:#FFA8A7;" d="M206.927,313.026c2.928,1.37,6.045,2.402,9.264,2.703c3.219,0.3,6.551-0.159,9.429-1.632
			c2.878-1.473,5.268-4.146,6.254-7.225c-0.006-0.007-0.012-0.013-0.018-0.02c-0.956-1.041-2.468-1.259-3.693-0.555
			c-2.744,1.577-6.273,1.979-9.282,1.111c0.98-1.001,1.86-2.101,2.621-3.278c0.375-0.58,0.722-1.346,0.344-1.923
			c-0.302-0.46-0.959-0.565-1.483-0.398c-0.524,0.166-0.952,0.54-1.379,0.886c-2.342,1.896-5.151,3.213-8.107,3.8
			C209.662,308.551,208.139,310.972,206.927,313.026z"/>
		<path style="fill:#455A64;" d="M172.88,272.552c-4.859-1.5-18.997-4.588-22.578-1.358c-3.129,2.823-5.163,12.552-0.945,25.046
			c1.205,3.569,1.071,7.479-0.497,10.904c-3.131,6.837-4.274,12.279-4.274,12.279c11.36,11.575,31.366,9.789,38.939,4.859
			c0-13.933-2.383-27.643-2.383-27.643L172.88,272.552z"/>
		<path style="fill:#FFA8A7;" d="M174.587,243.741c1.704,2.465,2.574,5.43,2.937,8.405s0.246,5.985,0.127,8.98
			c-0.046,1.16-0.119,2.4-0.821,3.325c-0.829,1.092-2.321,1.444-3.692,1.453c-1.371,0.009-2.615,0-4.105-0.05l-0.296,6.199
			c-4.894,2.715-10.396,0.822-11.825-1.108l0.25-6.073c7.609,1.429,11.718-1.179,12.432-5.895c-1.508,0.224-3.304-0.074-4.392-1.141
			c-1.088-1.067-1.639-2.657-1.445-4.169c0.087-0.674,0.325-1.347,0.788-1.845c0.764-0.82,2.051-1.019,3.111-0.654
			c1.059,0.366,1.899,1.216,2.459,2.187c0.56,0.971,0.869,2.064,1.14,3.151c0.894-0.653,1.294-2.046,0.915-3.086
			c-0.204-0.561-0.611-1.096-0.524-1.688c0.098-0.668,0.777-1.08,1.098-1.675c0.272-0.505,0.269-1.123,0.114-1.675
			c-0.155-0.553-0.447-1.055-0.737-1.55C172.706,245.803,173.728,244.558,174.587,243.741z"/>
		<path style="opacity:0.2;" d="M174.587,243.741c1.704,2.465,2.574,5.43,2.937,8.405s0.246,5.985,0.127,8.98
			c-0.046,1.16-0.119,2.4-0.821,3.325c-0.829,1.092-2.321,1.444-3.692,1.453c-1.371,0.009-2.615,0-4.105-0.05l-0.296,6.199
			c-4.894,2.715-10.396,0.822-11.825-1.108l0.25-6.073c7.609,1.429,11.718-1.179,12.432-5.895c-1.508,0.224-3.304-0.074-4.392-1.141
			c-1.088-1.067-1.639-2.657-1.445-4.169c0.087-0.674,0.325-1.347,0.788-1.845c0.764-0.82,2.051-1.019,3.111-0.654
			c1.059,0.366,1.899,1.216,2.459,2.187c0.56,0.971,0.869,2.064,1.14,3.151c0.894-0.653,1.294-2.046,0.915-3.086
			c-0.204-0.561-0.611-1.096-0.524-1.688c0.098-0.668,0.777-1.08,1.098-1.675c0.272-0.505,0.269-1.123,0.114-1.675
			c-0.155-0.553-0.447-1.055-0.737-1.55C172.706,245.803,173.728,244.558,174.587,243.741z"/>
		<path style="opacity:0.2;" d="M182.672,308.383c-0.684-6.879-1.529-11.745-1.529-11.745l-6.372-18.574
			c-0.799,1.103-1.598,2.207-2.397,3.31C173.824,290.148,177.266,301.033,182.672,308.383z"/>
		<path style="opacity:0.2;" d="M206.927,313.026c2.928,1.37,6.045,2.402,9.264,2.703c3.219,0.3,6.551-0.159,9.429-1.632
			c2.878-1.473,5.268-4.146,6.254-7.225c-0.006-0.007-0.012-0.013-0.018-0.02c-0.956-1.041-2.468-1.259-3.693-0.555
			c-2.744,1.577-6.273,1.979-9.282,1.111c0.98-1.001,1.86-2.101,2.621-3.278c0.375-0.58,0.722-1.346,0.344-1.923
			c-0.302-0.46-0.959-0.565-1.483-0.398c-0.524,0.166-0.952,0.54-1.379,0.886c-2.342,1.896-5.151,3.213-8.107,3.8
			C209.662,308.551,208.139,310.972,206.927,313.026z"/>
		<path style="fill:#455A64;" d="M172.88,272.552c8.955-3.906,9.982,4.627,14.899,13.698c3.011,5.832,6.727,11.452,6.727,11.452
			c6.668,4.144,11.17,5.859,16.576,7.621c1.953,5.144-2.572,10.193-2.572,10.193l-19.216-8.38c-3.258-1.421-6.009-3.811-7.875-6.837
			C174.498,289.079,169.431,281.134,172.88,272.552z"/>
		<path style="fill:#263238;" d="M173.937,246.732c2.017-2.238,4.125-4.662,4.559-7.644c0.488-3.354-1.539-6.913-4.674-8.203
			c-3.135-1.29-7.08-0.189-9.093,2.538c-4.843-2.169-11.773-0.786-15.107,3.343c-3.441,4.263-3.61,10.264-3.038,15.713
			c0.572,5.449,1.714,11.028,0.333,16.33c-1.24,4.759-4.47,9.078-4.351,13.994c0.081,3.35,1.803,6.551,4.323,8.76
			c2.52,2.209,5.777,3.475,9.095,3.939c2.951,0.413,6.028,0.207,8.788-0.916c2.76-1.123,5.177-3.212,6.398-5.93
			c1.535-3.415,1.075-7.38,0.233-11.029c-0.842-3.649-2.043-7.291-1.899-11.033C169.767,259.787,174.379,253.531,173.937,246.732z"
			/>
	</g>
</g>
</svg>
