<?xml version="1.0" encoding="utf-8"?>
<!-- Generator: Adobe Illustrator 24.1.1, SVG Export Plug-In . SVG Version: 6.00 Build 0)  -->
<svg version="1.1" id="Calque_1" xmlns="http://www.w3.org/2000/svg" xmlns:xlink="http://www.w3.org/1999/xlink" x="0px" y="0px"
	 viewBox="0 0 235 68" style="enable-background:new 0 0 235 68;" xml:space="preserve">
<style type="text/css">
	.st0{fill:#F6F8FB;}
	.st1{fill:#C2171A;}
	.st2{fill:#F6F8FB;}
</style>
<g>
	<g>
		<path class="st0" d="M85.3,58.1v1.5c0,2.6-0.6,5.7-6,5.7h-1.1c-5.6,0-5.9-3.2-5.9-5.7v-7.3h7C84.7,52.2,85.3,55.3,85.3,58.1z"/>
	</g>
	<g>
		<path class="st1" d="M31.5,2.1h-6.7C9.7,2.1,2,11.2,2,25.5v5.3h29.4V2.1z"/>
		<path class="st1" d="M44.4,8.4h-6.6v12.3h5.1c9.3,0,11.5,6.1,11.5,11.4v10.4c0,5.3-2.1,11.3-11.5,11.3H31.4
			c-9.3,0-11.5-6-11.5-11.3v-5.2H8.4v5.9c0,14.1,7.8,22.9,22.7,22.9h13.2c14.7,0,23-8.6,23-22.1v-12C67.3,17.5,59.6,8.4,44.4,8.4z"
			/>
	</g>
	<g>
		<path class="st2" d="M79.8,27.9l0.4,1.8c0.9-1.6,2.4-2.2,4-2.2c1.7,0,3.3,0.6,4.4,1.8l-2.5,4.5c-1-0.8-1.8-1-2.8-1
			c-1.6,0-2.9,0.9-2.9,3.1v8.7h-6.2V27.9H79.8z"/>
		<path class="st2" d="M106.7,37.9H95c0.4,1.5,2.4,2.1,3.7,2.1c1.8,0,3.2-0.5,4.3-1.3l3,3.4c-2,1.9-4.7,2.8-7.6,2.8
			c-5.3,0-9.7-2.6-9.7-8.7c0-6.1,4.8-8.8,9.3-8.8C103.9,27.5,108.1,31.4,106.7,37.9z M101.1,34c-0.2-2.6-5.6-2.7-6,0H101.1z"/>
		<path class="st2" d="M115.8,51.5h-6.2V27.9h5.5l0.3,1.8c1.4-1.6,3.6-2.2,5.5-2.1c4.9,0.3,7.6,3.4,7.6,8.6c0,5.1-3.2,8.7-8.1,8.7
			c-2.1,0-3.7-0.7-4.6-1.8V51.5z M122.3,36.2c0-2.3-1.5-3.6-3.3-3.6c-2.1,0-3.3,1.7-3.3,3.5c0,2,1.1,3.8,3.3,3.8
			C120.8,39.9,122.3,38.5,122.3,36.2z"/>
		<path class="st2" d="M149.3,36.2c0,6.1-4.8,8.7-9.5,8.7c-4.8,0-9.5-2.6-9.5-8.7c0-6.2,4.7-8.7,9.5-8.7
			C144.8,27.5,149.3,30.2,149.3,36.2z M143.3,36.2c0-1.9-1.2-3.6-3.4-3.6s-3.4,1.7-3.4,3.6c0,1.9,1.2,3.6,3.4,3.6
			C141.9,39.8,143.3,38.2,143.3,36.2z"/>
		<path class="st2" d="M157.6,27.9l0.4,1.8c0.9-1.6,2.4-2.2,4-2.2c1.7,0,3.3,0.6,4.4,1.8l-2.5,4.5c-1-0.8-1.8-1-2.8-1
			c-1.5,0-2.9,0.9-2.9,3.1v8.7h-6.2V27.9H157.6z"/>
		<path class="st2" d="M175.6,23.1V28h3.7v4.8h-3.8v5.5c0,1.2,0.7,1.6,1.7,1.6c0.6,0,1.3-0.2,1.8-0.6l1.3,4.6
			c-1.4,0.8-3.1,1.1-4.8,1.1c-3.3,0-6.3-1.5-6.2-6.7v-5.5h-2.7V28h2.7v-4.1L175.6,23.1z"/>
		<path class="st2" d="M185.7,20.4c1.7,0,3.5,1,3.5,3.1c0,2.1-1.8,3.1-3.5,3.1c-1.8,0-3.5-1-3.5-3.1
			C182.2,21.5,183.9,20.4,185.7,20.4z M188.8,44.5V28.1h-6.2v16.4H188.8z"/>
		<path class="st2" d="M203.7,44.5v-9.2c0-2.1-1.2-2.8-2.3-2.8c-1.5,0-2.9,1-2.9,3.2v8.8h-6.1V27.9h5.5l0.3,1.8
			c1.4-1.7,3.5-2.3,5.3-2.2c3.5,0,6.5,1.9,6.5,7.8v9.2H203.7z"/>
		<path class="st2" d="M218.5,45.7c-0.1,2.6,1.5,3.2,3.1,3.2c1.6,0,3.1-0.8,3.1-2.4c0-1.2-0.7-2.2-3-2.2c-5.6,0-9.3-3.2-9.3-8.4
			c0-5.2,4.1-8.5,9.3-8.5c1.1,0,2.3,0.2,3.4,0.6c0.6-0.7,1.2-1.6,1.8-2.3l4.5,3.2l-2.2,2.6c1.2,1.3,1.7,3,1.6,4.5
			c0,2.1-1.1,4.1-3,5.5c3.1,1.8,3.3,4.1,3.3,5c0,5.4-4.7,7.4-9.4,7.4c-6,0-9.3-3.1-9-8.2H218.5z M218.5,35.9c0,2,1.4,3.3,3.2,3.3
			c1.7,0,3.1-1,3.1-3.3c0-1.9-1.3-3.4-3.1-3.4C219.9,32.4,218.5,33.6,218.5,35.9z"/>
	</g>
</g>
</svg>
